<?xml version="1.0" encoding="UTF-8" standalone="no"?>
<!DOCTYPE svg PUBLIC "-//W3C//DTD SVG 1.1//EN"
 "http://www.w3.org/Graphics/SVG/1.1/DTD/svg11.dtd">
<!-- Generated by graphviz version 2.38.0 (20140413.2041)
 -->
<!-- Title: %3 Pages: 1 -->
<svg width="130pt" height="268pt"
 viewBox="0.00 0.00 130.33 268.35" xmlns="http://www.w3.org/2000/svg" xmlns:xlink="http://www.w3.org/1999/xlink">
<g id="graph0" class="graph" transform="scale(1 1) rotate(0) translate(4 264.35)">
<title>%3</title>
<polygon fill="white" stroke="none" points="-4,4 -4,-264.35 126.326,-264.35 126.326,4 -4,4"/>
<!-- A -->
<g id="node1" class="node"><title>A</title>
<polygon fill="lightgray" stroke="black" points="95.3492,-260.35 72.3492,-260.35 72.3492,-242.35 95.3492,-242.35 95.3492,-260.35"/>
<text text-anchor="middle" x="83.8492" y="-249.15" font-family="Times,serif" font-size="9.00">A</text>
</g>
<!-- A XOR B -->
<g id="node3" class="node"><title>A XOR B</title>
<ellipse fill="lightblue" stroke="black" cx="84.8492" cy="-103.175" rx="37.4533" ry="37.4533"/>
<text text-anchor="middle" x="84.8492" y="-100.975" font-family="Times,serif" font-size="9.00">A XOR B</text>
</g>
<!-- A&#45;&gt;A XOR B -->
<g id="edge4" class="edge"><title>A&#45;&gt;A XOR B</title>
<path fill="none" stroke="red" stroke-width="0.258434" d="M84.5675,-242.249C85.3109,-233.428 86.4219,-218.9 86.8492,-206.35 87.4593,-188.436 87.2763,-168.747 86.8312,-151.475"/>
<polygon fill="red" stroke="red" stroke-width="0.258434" points="90.3178,-150.963 86.525,-141.071 83.3208,-151.169 90.3178,-150.963"/>
</g>
<!-- 3 -->
<g id="node6" class="node"><title>3</title>
<ellipse fill="white" stroke="black" cx="62.8492" cy="-191.501" rx="14.7" ry="14.7"/>
<text text-anchor="middle" x="62.8492" y="-189.301" font-family="Times,serif" font-size="9.00">3</text>
</g>
<!-- A&#45;&gt;3 -->
<g id="edge5" class="edge"><title>A&#45;&gt;3</title>
<path fill="none" stroke="green" stroke-width="0.390331" d="M80.9293,-242.307C78.3865,-235.302 74.5738,-224.799 71.1041,-215.241"/>
<polygon fill="green" stroke="green" stroke-width="0.390331" points="74.3825,-214.015 67.6802,-205.809 67.8026,-216.403 74.3825,-214.015"/>
</g>
<!-- B -->
<g id="node2" class="node"><title>B</title>
<polygon fill="lightgray" stroke="black" points="53.3492,-260.35 30.3492,-260.35 30.3492,-242.35 53.3492,-242.35 53.3492,-260.35"/>
<text text-anchor="middle" x="41.8492" y="-249.15" font-family="Times,serif" font-size="9.00">B</text>
</g>
<!-- B&#45;&gt;A XOR B -->
<g id="edge7" class="edge"><title>B&#45;&gt;A XOR B</title>
<path fill="none" stroke="green" stroke-width="0.215449" d="M39.8084,-241.963C36.7986,-228.065 32.2036,-199.524 38.8492,-176.652 42.4584,-164.23 48.9081,-151.9 55.8574,-141.027"/>
<polygon fill="green" stroke="green" stroke-width="0.215449" points="58.8174,-142.898 61.4928,-132.646 53.0084,-138.992 58.8174,-142.898"/>
</g>
<!-- B&#45;&gt;3 -->
<g id="edge2" class="edge"><title>B&#45;&gt;3</title>
<path fill="none" stroke="red" stroke-width="0.235366" d="M44.7692,-242.307C47.312,-235.302 51.1247,-224.799 54.5943,-215.241"/>
<polygon fill="red" stroke="red" stroke-width="0.235366" points="57.8959,-216.403 58.0182,-205.809 51.316,-214.015 57.8959,-216.403"/>
</g>
<!-- 1 -->
<g id="node4" class="node"><title>1</title>
<ellipse fill="white" stroke="black" cx="84.8492" cy="-14.8492" rx="14.7" ry="14.7"/>
<text text-anchor="middle" x="84.8492" y="-12.6492" font-family="Times,serif" font-size="9.00">1</text>
</g>
<!-- A XOR B&#45;&gt;1 -->
<g id="edge1" class="edge"><title>A XOR B&#45;&gt;1</title>
<path fill="none" stroke="red" stroke-width="0.13646" d="M84.8492,-65.5652C84.8492,-56.8455 84.8492,-47.7606 84.8492,-39.7787"/>
<polygon fill="red" stroke="red" stroke-width="0.13646" points="88.3493,-39.716 84.8492,-29.716 81.3493,-39.716 88.3493,-39.716"/>
</g>
<!-- 2 -->
<g id="node5" class="node"><title>2</title>
<ellipse fill="white" stroke="black" cx="14.8492" cy="-103.175" rx="14.7" ry="14.7"/>
<text text-anchor="middle" x="14.8492" y="-100.975" font-family="Times,serif" font-size="9.00">2</text>
</g>
<!-- 3&#45;&gt;A XOR B -->
<g id="edge6" class="edge"><title>3&#45;&gt;A XOR B</title>
<path fill="none" stroke="green" stroke-width="1.74951" d="M66.2867,-177.013C68.1901,-169.544 70.679,-159.778 73.2131,-149.834"/>
<polygon fill="green" stroke="green" stroke-width="1.74951" points="76.6642,-150.465 75.7422,-139.91 69.881,-148.736 76.6642,-150.465"/>
</g>
<!-- 3&#45;&gt;2 -->
<g id="edge3" class="edge"><title>3&#45;&gt;2</title>
<path fill="none" stroke="green" stroke-width="0.221756" d="M55.972,-178.133C48.3443,-164.414 35.9016,-142.037 26.6977,-125.484"/>
<polygon fill="green" stroke="green" stroke-width="0.221756" points="29.6323,-123.56 21.7137,-116.521 23.5144,-126.961 29.6323,-123.56"/>
</g>
</g>
</svg>
