<?xml version="1.0" encoding="utf-8" standalone="no"?>
<!DOCTYPE svg PUBLIC "-//W3C//DTD SVG 1.1//EN"
  "http://www.w3.org/Graphics/SVG/1.1/DTD/svg11.dtd">
<!-- Created with matplotlib (http://matplotlib.org/) -->
<svg height="345pt" version="1.1" viewBox="0 0 460 345" width="460pt" xmlns="http://www.w3.org/2000/svg" xmlns:xlink="http://www.w3.org/1999/xlink">
 <defs>
  <style type="text/css">
*{stroke-linecap:butt;stroke-linejoin:round;}
  </style>
 </defs>
 <g id="figure_1">
  <g id="patch_1">
   <path d="M 0 345.6 
L 460.8 345.6 
L 460.8 0 
L 0 0 
z
" style="fill:#ffffff;"/>
  </g>
  <g id="axes_1">
   <g id="patch_2">
    <path d="M 57.6 307.584 
L 414.72 307.584 
L 414.72 41.472 
L 57.6 41.472 
z
" style="fill:#ffffff;"/>
   </g>
   <g id="matplotlib.axis_1">
    <g id="xtick_1">
     <g id="line2d_1">
      <path clip-path="url(#p2f104fe60f)" d="M 73.832727 307.584 
L 73.832727 41.472 
" style="fill:none;stroke:#b0b0b0;stroke-linecap:square;stroke-width:0.8;"/>
     </g>
     <g id="line2d_2">
      <defs>
       <path d="M 0 0 
L 0 3.5 
" id="mcedde5ef38" style="stroke:#000000;stroke-width:0.8;"/>
      </defs>
      <g>
       <use style="stroke:#000000;stroke-width:0.8;" x="73.832727" xlink:href="#mcedde5ef38" y="307.584"/>
      </g>
     </g>
     <g id="text_1">
      <!-- 0 -->
      <defs>
       <path d="M 31.78125 66.40625 
Q 24.171875 66.40625 20.328125 58.90625 
Q 16.5 51.421875 16.5 36.375 
Q 16.5 21.390625 20.328125 13.890625 
Q 24.171875 6.390625 31.78125 6.390625 
Q 39.453125 6.390625 43.28125 13.890625 
Q 47.125 21.390625 47.125 36.375 
Q 47.125 51.421875 43.28125 58.90625 
Q 39.453125 66.40625 31.78125 66.40625 
M 31.78125 74.21875 
Q 44.046875 74.21875 50.515625 64.515625 
Q 56.984375 54.828125 56.984375 36.375 
Q 56.984375 17.96875 50.515625 8.265625 
Q 44.046875 -1.421875 31.78125 -1.421875 
Q 19.53125 -1.421875 13.0625 8.265625 
Q 6.59375 17.96875 6.59375 36.375 
Q 6.59375 54.828125 13.0625 64.515625 
Q 19.53125 74.21875 31.78125 74.21875 
" id="DejaVuSans-30"/>
      </defs>
      <g transform="translate(70.651477 322.182437)scale(0.1 -0.1)">
       <use xlink:href="#DejaVuSans-30"/>
      </g>
     </g>
    </g>
    <g id="xtick_2">
     <g id="line2d_3">
      <path clip-path="url(#p2f104fe60f)" d="M 116.833329 307.584 
L 116.833329 41.472 
" style="fill:none;stroke:#b0b0b0;stroke-linecap:square;stroke-width:0.8;"/>
     </g>
     <g id="line2d_4">
      <g>
       <use style="stroke:#000000;stroke-width:0.8;" x="116.833329" xlink:href="#mcedde5ef38" y="307.584"/>
      </g>
     </g>
     <g id="text_2">
      <!-- 100 -->
      <defs>
       <path d="M 12.40625 8.296875 
L 28.515625 8.296875 
L 28.515625 63.921875 
L 10.984375 60.40625 
L 10.984375 69.390625 
L 28.421875 72.90625 
L 38.28125 72.90625 
L 38.28125 8.296875 
L 54.390625 8.296875 
L 54.390625 0 
L 12.40625 0 
z
" id="DejaVuSans-31"/>
      </defs>
      <g transform="translate(107.289579 322.182437)scale(0.1 -0.1)">
       <use xlink:href="#DejaVuSans-31"/>
       <use x="63.623047" xlink:href="#DejaVuSans-30"/>
       <use x="127.246094" xlink:href="#DejaVuSans-30"/>
      </g>
     </g>
    </g>
    <g id="xtick_3">
     <g id="line2d_5">
      <path clip-path="url(#p2f104fe60f)" d="M 159.833931 307.584 
L 159.833931 41.472 
" style="fill:none;stroke:#b0b0b0;stroke-linecap:square;stroke-width:0.8;"/>
     </g>
     <g id="line2d_6">
      <g>
       <use style="stroke:#000000;stroke-width:0.8;" x="159.833931" xlink:href="#mcedde5ef38" y="307.584"/>
      </g>
     </g>
     <g id="text_3">
      <!-- 200 -->
      <defs>
       <path d="M 19.1875 8.296875 
L 53.609375 8.296875 
L 53.609375 0 
L 7.328125 0 
L 7.328125 8.296875 
Q 12.9375 14.109375 22.625 23.890625 
Q 32.328125 33.6875 34.8125 36.53125 
Q 39.546875 41.84375 41.421875 45.53125 
Q 43.3125 49.21875 43.3125 52.78125 
Q 43.3125 58.59375 39.234375 62.25 
Q 35.15625 65.921875 28.609375 65.921875 
Q 23.96875 65.921875 18.8125 64.3125 
Q 13.671875 62.703125 7.8125 59.421875 
L 7.8125 69.390625 
Q 13.765625 71.78125 18.9375 73 
Q 24.125 74.21875 28.421875 74.21875 
Q 39.75 74.21875 46.484375 68.546875 
Q 53.21875 62.890625 53.21875 53.421875 
Q 53.21875 48.921875 51.53125 44.890625 
Q 49.859375 40.875 45.40625 35.40625 
Q 44.1875 33.984375 37.640625 27.21875 
Q 31.109375 20.453125 19.1875 8.296875 
" id="DejaVuSans-32"/>
      </defs>
      <g transform="translate(150.290181 322.182437)scale(0.1 -0.1)">
       <use xlink:href="#DejaVuSans-32"/>
       <use x="63.623047" xlink:href="#DejaVuSans-30"/>
       <use x="127.246094" xlink:href="#DejaVuSans-30"/>
      </g>
     </g>
    </g>
    <g id="xtick_4">
     <g id="line2d_7">
      <path clip-path="url(#p2f104fe60f)" d="M 202.834533 307.584 
L 202.834533 41.472 
" style="fill:none;stroke:#b0b0b0;stroke-linecap:square;stroke-width:0.8;"/>
     </g>
     <g id="line2d_8">
      <g>
       <use style="stroke:#000000;stroke-width:0.8;" x="202.834533" xlink:href="#mcedde5ef38" y="307.584"/>
      </g>
     </g>
     <g id="text_4">
      <!-- 300 -->
      <defs>
       <path d="M 40.578125 39.3125 
Q 47.65625 37.796875 51.625 33 
Q 55.609375 28.21875 55.609375 21.1875 
Q 55.609375 10.40625 48.1875 4.484375 
Q 40.765625 -1.421875 27.09375 -1.421875 
Q 22.515625 -1.421875 17.65625 -0.515625 
Q 12.796875 0.390625 7.625 2.203125 
L 7.625 11.71875 
Q 11.71875 9.328125 16.59375 8.109375 
Q 21.484375 6.890625 26.8125 6.890625 
Q 36.078125 6.890625 40.9375 10.546875 
Q 45.796875 14.203125 45.796875 21.1875 
Q 45.796875 27.640625 41.28125 31.265625 
Q 36.765625 34.90625 28.71875 34.90625 
L 20.21875 34.90625 
L 20.21875 43.015625 
L 29.109375 43.015625 
Q 36.375 43.015625 40.234375 45.921875 
Q 44.09375 48.828125 44.09375 54.296875 
Q 44.09375 59.90625 40.109375 62.90625 
Q 36.140625 65.921875 28.71875 65.921875 
Q 24.65625 65.921875 20.015625 65.03125 
Q 15.375 64.15625 9.8125 62.3125 
L 9.8125 71.09375 
Q 15.4375 72.65625 20.34375 73.4375 
Q 25.25 74.21875 29.59375 74.21875 
Q 40.828125 74.21875 47.359375 69.109375 
Q 53.90625 64.015625 53.90625 55.328125 
Q 53.90625 49.265625 50.4375 45.09375 
Q 46.96875 40.921875 40.578125 39.3125 
" id="DejaVuSans-33"/>
      </defs>
      <g transform="translate(193.290783 322.182437)scale(0.1 -0.1)">
       <use xlink:href="#DejaVuSans-33"/>
       <use x="63.623047" xlink:href="#DejaVuSans-30"/>
       <use x="127.246094" xlink:href="#DejaVuSans-30"/>
      </g>
     </g>
    </g>
    <g id="xtick_5">
     <g id="line2d_9">
      <path clip-path="url(#p2f104fe60f)" d="M 245.835135 307.584 
L 245.835135 41.472 
" style="fill:none;stroke:#b0b0b0;stroke-linecap:square;stroke-width:0.8;"/>
     </g>
     <g id="line2d_10">
      <g>
       <use style="stroke:#000000;stroke-width:0.8;" x="245.835135" xlink:href="#mcedde5ef38" y="307.584"/>
      </g>
     </g>
     <g id="text_5">
      <!-- 400 -->
      <defs>
       <path d="M 37.796875 64.3125 
L 12.890625 25.390625 
L 37.796875 25.390625 
z
M 35.203125 72.90625 
L 47.609375 72.90625 
L 47.609375 25.390625 
L 58.015625 25.390625 
L 58.015625 17.1875 
L 47.609375 17.1875 
L 47.609375 0 
L 37.796875 0 
L 37.796875 17.1875 
L 4.890625 17.1875 
L 4.890625 26.703125 
z
" id="DejaVuSans-34"/>
      </defs>
      <g transform="translate(236.291385 322.182437)scale(0.1 -0.1)">
       <use xlink:href="#DejaVuSans-34"/>
       <use x="63.623047" xlink:href="#DejaVuSans-30"/>
       <use x="127.246094" xlink:href="#DejaVuSans-30"/>
      </g>
     </g>
    </g>
    <g id="xtick_6">
     <g id="line2d_11">
      <path clip-path="url(#p2f104fe60f)" d="M 288.835738 307.584 
L 288.835738 41.472 
" style="fill:none;stroke:#b0b0b0;stroke-linecap:square;stroke-width:0.8;"/>
     </g>
     <g id="line2d_12">
      <g>
       <use style="stroke:#000000;stroke-width:0.8;" x="288.835738" xlink:href="#mcedde5ef38" y="307.584"/>
      </g>
     </g>
     <g id="text_6">
      <!-- 500 -->
      <defs>
       <path d="M 10.796875 72.90625 
L 49.515625 72.90625 
L 49.515625 64.59375 
L 19.828125 64.59375 
L 19.828125 46.734375 
Q 21.96875 47.46875 24.109375 47.828125 
Q 26.265625 48.1875 28.421875 48.1875 
Q 40.625 48.1875 47.75 41.5 
Q 54.890625 34.8125 54.890625 23.390625 
Q 54.890625 11.625 47.5625 5.09375 
Q 40.234375 -1.421875 26.90625 -1.421875 
Q 22.3125 -1.421875 17.546875 -0.640625 
Q 12.796875 0.140625 7.71875 1.703125 
L 7.71875 11.625 
Q 12.109375 9.234375 16.796875 8.0625 
Q 21.484375 6.890625 26.703125 6.890625 
Q 35.15625 6.890625 40.078125 11.328125 
Q 45.015625 15.765625 45.015625 23.390625 
Q 45.015625 31 40.078125 35.4375 
Q 35.15625 39.890625 26.703125 39.890625 
Q 22.75 39.890625 18.8125 39.015625 
Q 14.890625 38.140625 10.796875 36.28125 
z
" id="DejaVuSans-35"/>
      </defs>
      <g transform="translate(279.291988 322.182437)scale(0.1 -0.1)">
       <use xlink:href="#DejaVuSans-35"/>
       <use x="63.623047" xlink:href="#DejaVuSans-30"/>
       <use x="127.246094" xlink:href="#DejaVuSans-30"/>
      </g>
     </g>
    </g>
    <g id="xtick_7">
     <g id="line2d_13">
      <path clip-path="url(#p2f104fe60f)" d="M 331.83634 307.584 
L 331.83634 41.472 
" style="fill:none;stroke:#b0b0b0;stroke-linecap:square;stroke-width:0.8;"/>
     </g>
     <g id="line2d_14">
      <g>
       <use style="stroke:#000000;stroke-width:0.8;" x="331.83634" xlink:href="#mcedde5ef38" y="307.584"/>
      </g>
     </g>
     <g id="text_7">
      <!-- 600 -->
      <defs>
       <path d="M 33.015625 40.375 
Q 26.375 40.375 22.484375 35.828125 
Q 18.609375 31.296875 18.609375 23.390625 
Q 18.609375 15.53125 22.484375 10.953125 
Q 26.375 6.390625 33.015625 6.390625 
Q 39.65625 6.390625 43.53125 10.953125 
Q 47.40625 15.53125 47.40625 23.390625 
Q 47.40625 31.296875 43.53125 35.828125 
Q 39.65625 40.375 33.015625 40.375 
M 52.59375 71.296875 
L 52.59375 62.3125 
Q 48.875 64.0625 45.09375 64.984375 
Q 41.3125 65.921875 37.59375 65.921875 
Q 27.828125 65.921875 22.671875 59.328125 
Q 17.53125 52.734375 16.796875 39.40625 
Q 19.671875 43.65625 24.015625 45.921875 
Q 28.375 48.1875 33.59375 48.1875 
Q 44.578125 48.1875 50.953125 41.515625 
Q 57.328125 34.859375 57.328125 23.390625 
Q 57.328125 12.15625 50.6875 5.359375 
Q 44.046875 -1.421875 33.015625 -1.421875 
Q 20.359375 -1.421875 13.671875 8.265625 
Q 6.984375 17.96875 6.984375 36.375 
Q 6.984375 53.65625 15.1875 63.9375 
Q 23.390625 74.21875 37.203125 74.21875 
Q 40.921875 74.21875 44.703125 73.484375 
Q 48.484375 72.75 52.59375 71.296875 
" id="DejaVuSans-36"/>
      </defs>
      <g transform="translate(322.29259 322.182437)scale(0.1 -0.1)">
       <use xlink:href="#DejaVuSans-36"/>
       <use x="63.623047" xlink:href="#DejaVuSans-30"/>
       <use x="127.246094" xlink:href="#DejaVuSans-30"/>
      </g>
     </g>
    </g>
    <g id="xtick_8">
     <g id="line2d_15">
      <path clip-path="url(#p2f104fe60f)" d="M 374.836942 307.584 
L 374.836942 41.472 
" style="fill:none;stroke:#b0b0b0;stroke-linecap:square;stroke-width:0.8;"/>
     </g>
     <g id="line2d_16">
      <g>
       <use style="stroke:#000000;stroke-width:0.8;" x="374.836942" xlink:href="#mcedde5ef38" y="307.584"/>
      </g>
     </g>
     <g id="text_8">
      <!-- 700 -->
      <defs>
       <path d="M 8.203125 72.90625 
L 55.078125 72.90625 
L 55.078125 68.703125 
L 28.609375 0 
L 18.3125 0 
L 43.21875 64.59375 
L 8.203125 64.59375 
z
" id="DejaVuSans-37"/>
      </defs>
      <g transform="translate(365.293192 322.182437)scale(0.1 -0.1)">
       <use xlink:href="#DejaVuSans-37"/>
       <use x="63.623047" xlink:href="#DejaVuSans-30"/>
       <use x="127.246094" xlink:href="#DejaVuSans-30"/>
      </g>
     </g>
    </g>
   </g>
   <g id="matplotlib.axis_2">
    <g id="ytick_1">
     <g id="line2d_17">
      <path clip-path="url(#p2f104fe60f)" d="M 57.6 280.393023 
L 414.72 280.393023 
" style="fill:none;stroke:#b0b0b0;stroke-linecap:square;stroke-width:0.8;"/>
     </g>
     <g id="line2d_18">
      <defs>
       <path d="M 0 0 
L -3.5 0 
" id="m5ab9210acc" style="stroke:#000000;stroke-width:0.8;"/>
      </defs>
      <g>
       <use style="stroke:#000000;stroke-width:0.8;" x="57.6" xlink:href="#m5ab9210acc" y="280.393023"/>
      </g>
     </g>
     <g id="text_9">
      <!-- −6000 -->
      <defs>
       <path d="M 10.59375 35.5 
L 73.1875 35.5 
L 73.1875 27.203125 
L 10.59375 27.203125 
z
" id="DejaVuSans-2212"/>
      </defs>
      <g transform="translate(16.770313 284.192242)scale(0.1 -0.1)">
       <use xlink:href="#DejaVuSans-2212"/>
       <use x="83.789062" xlink:href="#DejaVuSans-36"/>
       <use x="147.412109" xlink:href="#DejaVuSans-30"/>
       <use x="211.035156" xlink:href="#DejaVuSans-30"/>
       <use x="274.658203" xlink:href="#DejaVuSans-30"/>
      </g>
     </g>
    </g>
    <g id="ytick_2">
     <g id="line2d_19">
      <path clip-path="url(#p2f104fe60f)" d="M 57.6 245.275354 
L 414.72 245.275354 
" style="fill:none;stroke:#b0b0b0;stroke-linecap:square;stroke-width:0.8;"/>
     </g>
     <g id="line2d_20">
      <g>
       <use style="stroke:#000000;stroke-width:0.8;" x="57.6" xlink:href="#m5ab9210acc" y="245.275354"/>
      </g>
     </g>
     <g id="text_10">
      <!-- −5000 -->
      <g transform="translate(16.770313 249.074573)scale(0.1 -0.1)">
       <use xlink:href="#DejaVuSans-2212"/>
       <use x="83.789062" xlink:href="#DejaVuSans-35"/>
       <use x="147.412109" xlink:href="#DejaVuSans-30"/>
       <use x="211.035156" xlink:href="#DejaVuSans-30"/>
       <use x="274.658203" xlink:href="#DejaVuSans-30"/>
      </g>
     </g>
    </g>
    <g id="ytick_3">
     <g id="line2d_21">
      <path clip-path="url(#p2f104fe60f)" d="M 57.6 210.157686 
L 414.72 210.157686 
" style="fill:none;stroke:#b0b0b0;stroke-linecap:square;stroke-width:0.8;"/>
     </g>
     <g id="line2d_22">
      <g>
       <use style="stroke:#000000;stroke-width:0.8;" x="57.6" xlink:href="#m5ab9210acc" y="210.157686"/>
      </g>
     </g>
     <g id="text_11">
      <!-- −4000 -->
      <g transform="translate(16.770313 213.956904)scale(0.1 -0.1)">
       <use xlink:href="#DejaVuSans-2212"/>
       <use x="83.789062" xlink:href="#DejaVuSans-34"/>
       <use x="147.412109" xlink:href="#DejaVuSans-30"/>
       <use x="211.035156" xlink:href="#DejaVuSans-30"/>
       <use x="274.658203" xlink:href="#DejaVuSans-30"/>
      </g>
     </g>
    </g>
    <g id="ytick_4">
     <g id="line2d_23">
      <path clip-path="url(#p2f104fe60f)" d="M 57.6 175.040017 
L 414.72 175.040017 
" style="fill:none;stroke:#b0b0b0;stroke-linecap:square;stroke-width:0.8;"/>
     </g>
     <g id="line2d_24">
      <g>
       <use style="stroke:#000000;stroke-width:0.8;" x="57.6" xlink:href="#m5ab9210acc" y="175.040017"/>
      </g>
     </g>
     <g id="text_12">
      <!-- −3000 -->
      <g transform="translate(16.770313 178.839235)scale(0.1 -0.1)">
       <use xlink:href="#DejaVuSans-2212"/>
       <use x="83.789062" xlink:href="#DejaVuSans-33"/>
       <use x="147.412109" xlink:href="#DejaVuSans-30"/>
       <use x="211.035156" xlink:href="#DejaVuSans-30"/>
       <use x="274.658203" xlink:href="#DejaVuSans-30"/>
      </g>
     </g>
    </g>
    <g id="ytick_5">
     <g id="line2d_25">
      <path clip-path="url(#p2f104fe60f)" d="M 57.6 139.922348 
L 414.72 139.922348 
" style="fill:none;stroke:#b0b0b0;stroke-linecap:square;stroke-width:0.8;"/>
     </g>
     <g id="line2d_26">
      <g>
       <use style="stroke:#000000;stroke-width:0.8;" x="57.6" xlink:href="#m5ab9210acc" y="139.922348"/>
      </g>
     </g>
     <g id="text_13">
      <!-- −2000 -->
      <g transform="translate(16.770313 143.721567)scale(0.1 -0.1)">
       <use xlink:href="#DejaVuSans-2212"/>
       <use x="83.789062" xlink:href="#DejaVuSans-32"/>
       <use x="147.412109" xlink:href="#DejaVuSans-30"/>
       <use x="211.035156" xlink:href="#DejaVuSans-30"/>
       <use x="274.658203" xlink:href="#DejaVuSans-30"/>
      </g>
     </g>
    </g>
    <g id="ytick_6">
     <g id="line2d_27">
      <path clip-path="url(#p2f104fe60f)" d="M 57.6 104.804679 
L 414.72 104.804679 
" style="fill:none;stroke:#b0b0b0;stroke-linecap:square;stroke-width:0.8;"/>
     </g>
     <g id="line2d_28">
      <g>
       <use style="stroke:#000000;stroke-width:0.8;" x="57.6" xlink:href="#m5ab9210acc" y="104.804679"/>
      </g>
     </g>
     <g id="text_14">
      <!-- −1000 -->
      <g transform="translate(16.770313 108.603898)scale(0.1 -0.1)">
       <use xlink:href="#DejaVuSans-2212"/>
       <use x="83.789062" xlink:href="#DejaVuSans-31"/>
       <use x="147.412109" xlink:href="#DejaVuSans-30"/>
       <use x="211.035156" xlink:href="#DejaVuSans-30"/>
       <use x="274.658203" xlink:href="#DejaVuSans-30"/>
      </g>
     </g>
    </g>
    <g id="ytick_7">
     <g id="line2d_29">
      <path clip-path="url(#p2f104fe60f)" d="M 57.6 69.68701 
L 414.72 69.68701 
" style="fill:none;stroke:#b0b0b0;stroke-linecap:square;stroke-width:0.8;"/>
     </g>
     <g id="line2d_30">
      <g>
       <use style="stroke:#000000;stroke-width:0.8;" x="57.6" xlink:href="#m5ab9210acc" y="69.68701"/>
      </g>
     </g>
     <g id="text_15">
      <!-- 0 -->
      <g transform="translate(44.2375 73.486229)scale(0.1 -0.1)">
       <use xlink:href="#DejaVuSans-30"/>
      </g>
     </g>
    </g>
   </g>
   <g id="line2d_31">
    <path clip-path="url(#p2f104fe60f)" d="M 73.832727 74.758456 
L 74.262733 91.476939 
L 74.692739 81.663699 
L 75.122745 88.465659 
L 75.552751 80.494172 
L 76.412763 91.889938 
L 76.842769 84.91532 
L 77.272775 82.289644 
L 77.702781 75.067385 
L 78.132787 86.722989 
L 78.562793 77.986344 
L 78.9928 78.365752 
L 79.852812 110.384902 
L 80.282818 77.564288 
L 80.712824 90.842394 
L 81.14283 87.730758 
L 81.572836 71.661636 
L 82.002842 74.66007 
L 82.432848 76.516766 
L 82.862854 85.976128 
L 83.722866 91.98473 
L 84.152872 90.701552 
L 84.582878 75.667841 
L 85.012884 78.11834 
L 85.44289 98.482347 
L 85.872896 98.357005 
L 86.302902 78.563492 
L 86.732908 83.609072 
L 87.162914 74.81236 
L 87.59292 86.522546 
L 88.022926 87.501405 
L 88.452932 81.748828 
L 88.882938 79.173231 
L 89.312944 87.467077 
L 89.74295 99.037348 
L 90.172956 74.683799 
L 90.602962 80.037224 
L 91.032968 89.25901 
L 91.462974 86.07016 
L 91.89298 85.294211 
L 92.322986 77.275389 
L 92.752992 91.242315 
L 93.613004 77.268849 
L 94.04301 76.692046 
L 94.473016 90.077891 
L 94.903022 85.54 
L 95.333028 97.634758 
L 95.763034 74.872054 
L 96.623046 85.208394 
L 97.053052 76.916415 
L 97.483058 75.986021 
L 97.913064 74.280578 
L 98.34307 88.832496 
L 98.773076 88.816905 
L 99.203082 89.215564 
L 99.633089 83.350856 
L 100.063095 92.49149 
L 100.493101 75.70043 
L 100.923107 77.172704 
L 101.353113 75.096787 
L 101.783119 75.611508 
L 102.213125 78.428784 
L 102.643131 89.739541 
L 103.073137 79.459484 
L 103.503143 74.072604 
L 103.933149 87.269241 
L 104.363155 95.15167 
L 104.793161 75.422619 
L 105.223167 76.064142 
L 105.653173 85.941151 
L 106.083179 84.287129 
L 106.513185 74.746046 
L 106.943191 90.319682 
L 107.373197 79.199462 
L 107.803203 83.586605 
L 108.233209 108.601257 
L 108.663215 82.747098 
L 109.093221 76.550875 
L 109.523227 94.945352 
L 109.953233 71.012843 
L 110.383239 86.768447 
L 110.813245 74.595646 
L 111.243251 86.226573 
L 111.673257 84.998684 
L 112.103263 75.130655 
L 112.533269 87.244467 
L 112.963275 75.517307 
L 113.823287 89.415278 
L 114.683299 75.238268 
L 115.113305 78.446148 
L 115.543311 84.078178 
L 116.403323 102.496371 
L 116.833329 80.081313 
L 117.263335 92.269356 
L 117.693341 80.019206 
L 118.123347 84.571139 
L 118.553353 84.795409 
L 118.983359 93.126804 
L 119.413365 85.781345 
L 119.843371 88.264176 
L 120.273377 75.168776 
L 120.703384 90.247261 
L 121.13339 88.199335 
L 121.563396 85.047715 
L 121.993402 75.990089 
L 122.423408 92.154807 
L 122.853414 82.29463 
L 123.28342 95.325644 
L 123.713426 87.20493 
L 124.143432 90.207177 
L 124.573438 98.708473 
L 125.003444 96.01454 
L 125.43345 76.082452 
L 125.863456 84.312183 
L 126.293462 85.273836 
L 126.723468 90.109707 
L 127.153474 75.852383 
L 127.58348 77.289006 
L 128.013486 84.065606 
L 128.443492 84.557522 
L 128.873498 88.111389 
L 129.303504 79.928892 
L 129.73351 94.82866 
L 130.163516 84.087172 
L 130.593522 86.08069 
L 131.023528 83.908532 
L 131.453534 75.52308 
L 131.88354 95.824618 
L 132.313546 82.124223 
L 132.743552 76.799916 
L 133.173558 90.995431 
L 133.603564 73.1807 
L 134.03357 81.736313 
L 134.463576 76.30726 
L 134.893582 86.626571 
L 135.323588 82.666436 
L 135.753594 76.199222 
L 136.1836 88.848263 
L 136.613606 97.698679 
L 137.043612 93.490881 
L 137.473618 75.796741 
L 137.903624 92.643068 
L 138.33363 75.514144 
L 138.763636 78.616243 
L 139.193642 86.314666 
L 139.623648 83.035888 
L 140.053654 86.279083 
L 140.48366 80.687315 
L 140.913666 86.102431 
L 141.343672 84.373531 
L 141.773679 89.622239 
L 142.203685 83.60819 
L 142.633691 93.753939 
L 143.063697 88.132121 
L 143.493703 109.418002 
L 143.923709 95.245809 
L 144.353715 87.428076 
L 144.783721 89.544734 
L 145.213727 85.833235 
L 145.643733 122.891067 
L 146.073739 81.332842 
L 146.503745 86.097634 
L 146.933751 83.137147 
L 147.363757 74.804315 
L 147.793763 102.203575 
L 148.223769 86.766926 
L 148.653775 78.925626 
L 149.083781 85.427215 
L 149.513787 75.962316 
L 149.943793 81.700098 
L 150.373799 79.053298 
L 150.803805 97.754558 
L 151.233811 93.711593 
L 151.663817 75.547813 
L 152.093823 78.500316 
L 152.523829 79.982713 
L 152.953835 75.008686 
L 153.383841 80.153577 
L 153.813847 75.765228 
L 154.243853 74.55762 
L 154.673859 86.51817 
L 155.103865 88.571481 
L 155.533871 76.302512 
L 155.963877 97.234643 
L 156.393883 88.233321 
L 156.823889 87.078589 
L 157.253895 93.90736 
L 157.683901 85.556516 
L 158.113907 85.05645 
L 158.543913 84.025942 
L 158.973919 87.100773 
L 159.403925 88.334247 
L 159.833931 87.707485 
L 160.263937 87.951108 
L 160.693943 93.516881 
L 161.123949 120.009839 
L 161.553955 81.175776 
L 161.983961 84.602656 
L 162.413967 75.439132 
L 162.843974 82.759186 
L 163.27398 98.16765 
L 163.703986 82.161834 
L 164.133992 76.324751 
L 164.563998 76.097129 
L 164.994004 87.914284 
L 165.42401 88.054203 
L 165.854016 76.109809 
L 166.284022 81.333422 
L 166.714028 81.201563 
L 167.144034 94.557407 
L 167.57404 91.286724 
L 168.004046 78.847311 
L 168.434052 89.670276 
L 168.864058 75.745771 
L 169.294064 88.17685 
L 169.72407 87.867378 
L 170.154076 81.279597 
L 170.584082 86.786926 
L 171.014088 82.580007 
L 171.444094 82.778661 
L 171.8741 74.690079 
L 172.304106 90.61185 
L 172.734112 94.422579 
L 173.164118 130.305417 
L 173.594124 82.347613 
L 174.02413 89.546339 
L 174.454136 86.589124 
L 174.884142 94.252868 
L 175.314148 82.295306 
L 175.744154 89.896142 
L 176.17416 93.695392 
L 176.604166 78.786681 
L 177.034172 79.344756 
L 177.464178 75.311095 
L 177.894184 84.489971 
L 178.32419 75.8716 
L 178.754196 75.047179 
L 179.184202 81.035944 
L 179.614208 82.396741 
L 180.044214 75.67228 
L 180.47422 91.211986 
L 180.904226 90.1917 
L 181.334232 83.781973 
L 181.764238 85.262313 
L 182.194244 75.98514 
L 182.62425 87.885668 
L 183.054256 89.12879 
L 183.484262 95.984234 
L 183.914269 89.414585 
L 184.344275 71.538876 
L 184.774281 85.899539 
L 185.204287 75.975613 
L 185.634293 77.019689 
L 186.064299 74.081176 
L 186.494305 77.861261 
L 186.924311 75.816595 
L 187.354317 92.085027 
L 187.784323 87.343216 
L 188.214329 75.728363 
L 188.644335 75.499025 
L 189.074341 76.200841 
L 189.504347 74.444616 
L 189.934353 74.708446 
L 190.364359 75.326331 
L 190.794365 77.012289 
L 191.224371 87.370062 
L 191.654377 76.071807 
L 192.084383 90.713767 
L 192.514389 78.172927 
L 192.944395 88.616476 
L 193.374401 74.738588 
L 193.804407 87.189697 
L 194.234413 82.026471 
L 194.664419 89.964671 
L 195.094425 90.603178 
L 195.524431 81.410287 
L 195.954437 92.089632 
L 196.384443 76.616271 
L 196.814449 82.214826 
L 197.244455 76.093412 
L 197.674461 92.036008 
L 198.104467 90.735561 
L 198.534473 76.391796 
L 199.394485 88.140657 
L 199.824491 89.628609 
L 200.254497 79.479448 
L 200.684503 81.672223 
L 201.114509 82.267894 
L 201.544515 79.624399 
L 201.974521 84.218429 
L 202.404527 75.944204 
L 202.834533 79.232793 
L 203.264539 89.615899 
L 203.694545 76.477626 
L 204.124551 75.864736 
L 204.554557 76.229885 
L 204.984564 75.305424 
L 205.41457 78.814206 
L 205.844576 89.9545 
L 206.274582 88.58802 
L 206.704588 75.387953 
L 207.134594 93.777058 
L 207.5646 99.082221 
L 207.994606 127.074394 
L 208.424612 295.488 
L 208.854618 88.756802 
L 209.284624 86.49551 
L 209.71463 88.295301 
L 210.144636 75.733694 
L 210.574642 86.78614 
L 211.004648 112.505682 
L 211.86466 86.407647 
L 212.294666 117.803565 
L 212.724672 82.210162 
L 213.154678 87.25837 
L 213.584684 88.694728 
L 214.01469 95.355783 
L 214.874702 75.915385 
L 215.304708 88.796708 
L 215.734714 89.051278 
L 216.16472 93.93824 
L 216.594726 88.683591 
L 217.024732 93.855536 
L 217.454738 83.726014 
L 217.884744 76.56342 
L 218.31475 90.830233 
L 218.744756 91.630572 
L 219.174762 94.87303 
L 219.604768 87.30078 
L 220.034774 74.594299 
L 220.46478 85.423082 
L 220.894786 74.037369 
L 221.324792 84.888122 
L 221.754798 74.811527 
L 222.184804 75.25806 
L 222.61481 75.002398 
L 223.044816 93.598755 
L 223.474822 84.182919 
L 223.904828 100.737803 
L 224.334834 87.660119 
L 224.76484 83.296382 
L 225.194846 89.467134 
L 225.624852 79.389764 
L 226.054859 78.656739 
L 226.484865 79.956213 
L 226.914871 72.718216 
L 227.344877 82.854378 
L 227.774883 88.721804 
L 228.204889 76.01117 
L 228.634895 89.012818 
L 229.064901 89.90882 
L 229.494907 87.015055 
L 229.924913 95.746458 
L 230.354919 81.766609 
L 230.784925 85.004397 
L 231.214931 77.358456 
L 231.644937 74.403353 
L 232.074943 74.732384 
L 232.934955 80.506465 
L 233.364961 76.148976 
L 233.794967 76.803101 
L 234.224973 78.886539 
L 234.654979 86.415738 
L 235.084985 76.17588 
L 235.514991 75.248026 
L 235.944997 84.436139 
L 236.375003 76.366078 
L 236.805009 86.118916 
L 237.235015 86.757946 
L 237.665021 85.239643 
L 238.095027 79.236843 
L 238.525033 71.185743 
L 238.955039 75.01492 
L 239.385045 75.684279 
L 239.815051 92.168824 
L 240.245057 89.826037 
L 240.675063 75.785066 
L 241.105069 84.494997 
L 241.535075 76.615972 
L 241.965081 76.115119 
L 242.395087 87.195525 
L 242.825093 79.605129 
L 243.255099 84.868509 
L 244.115111 76.538927 
L 244.545117 77.789865 
L 244.975123 75.122155 
L 245.405129 90.984172 
L 245.835135 75.691821 
L 246.265141 90.616526 
L 246.695148 87.643788 
L 247.125154 77.356748 
L 247.55516 74.795935 
L 247.985166 79.407629 
L 248.415172 75.725571 
L 248.845178 75.879926 
L 249.70519 75.642567 
L 250.135196 77.509023 
L 250.565202 75.588356 
L 250.995208 75.849001 
L 251.425214 76.397549 
L 251.85522 84.850908 
L 252.285226 77.108883 
L 252.715232 77.135308 
L 253.145238 76.664752 
L 253.575244 74.712577 
L 254.00525 77.920608 
L 254.435256 75.031187 
L 254.865262 87.488782 
L 255.725274 76.283318 
L 256.15528 76.551526 
L 256.585286 82.069798 
L 257.015292 77.378257 
L 257.445298 77.254265 
L 257.875304 76.642956 
L 258.30531 74.62826 
L 258.735316 76.542357 
L 259.595328 74.624592 
L 260.025334 75.445346 
L 260.45534 77.702443 
L 261.315352 75.576287 
L 261.745358 75.925783 
L 262.175364 74.54698 
L 262.60537 70.143394 
L 263.465382 77.349601 
L 263.895388 71.036948 
L 264.325394 91.828245 
L 264.7554 76.252404 
L 265.185406 76.331297 
L 265.615412 72.341619 
L 266.045418 75.834916 
L 266.475424 81.883336 
L 266.90543 75.797094 
L 267.335436 75.467805 
L 267.765443 75.90391 
L 268.195449 75.238996 
L 268.625455 76.699163 
L 269.055461 72.13945 
L 269.485467 75.318223 
L 269.915473 85.69325 
L 270.345479 88.054629 
L 270.775485 82.962356 
L 271.205491 89.169905 
L 271.635497 77.513599 
L 272.065503 91.328075 
L 272.495509 83.536362 
L 272.925515 86.343627 
L 273.355521 82.969866 
L 273.785527 90.705033 
L 274.215533 86.059491 
L 274.645539 87.150956 
L 275.075545 90.370399 
L 275.505551 85.945783 
L 275.935557 85.487133 
L 276.365563 78.404807 
L 276.795569 82.559725 
L 277.225575 79.139497 
L 277.655581 110.650575 
L 278.515593 75.970984 
L 278.945599 133.404695 
L 279.375605 96.244337 
L 279.805611 76.966265 
L 280.235617 75.77365 
L 280.665623 74.917931 
L 281.095629 100.175316 
L 281.525635 83.013568 
L 281.955641 90.045077 
L 282.385647 89.618862 
L 282.815653 83.157918 
L 283.245659 97.098126 
L 283.675665 83.603787 
L 284.105671 79.43987 
L 284.535677 107.419685 
L 284.965683 89.115121 
L 285.395689 96.59657 
L 285.825695 77.009059 
L 286.255701 78.614924 
L 287.115713 89.574741 
L 287.545719 89.8775 
L 287.975725 88.022407 
L 288.405731 88.106868 
L 288.835738 83.705902 
L 289.265744 85.233783 
L 289.69575 78.303818 
L 290.125756 85.119794 
L 290.555762 74.294453 
L 290.985768 91.61472 
L 291.415774 80.051621 
L 291.84578 75.746339 
L 292.275786 87.320594 
L 292.705792 75.205172 
L 293.135798 75.263441 
L 293.565804 75.861529 
L 293.99581 75.031172 
L 294.425816 76.887228 
L 294.855822 79.392317 
L 295.285828 84.754039 
L 295.715834 75.359063 
L 296.14584 95.338427 
L 296.575846 75.234482 
L 297.005852 76.689049 
L 297.435858 94.690144 
L 297.865864 82.179911 
L 298.29587 75.626968 
L 298.725876 86.325906 
L 299.155882 76.661863 
L 299.585888 77.571174 
L 300.015894 77.5052 
L 300.4459 75.78952 
L 300.875906 76.262426 
L 301.305912 75.6812 
L 301.735918 77.480037 
L 302.165924 75.065388 
L 302.59593 76.897667 
L 303.025936 75.424225 
L 303.455942 75.926173 
L 303.885948 75.680654 
L 304.74596 76.548709 
L 305.175966 78.443822 
L 305.605972 84.858613 
L 306.035978 77.359763 
L 306.465984 93.001415 
L 306.89599 93.858108 
L 307.325996 76.206189 
L 307.756002 92.184835 
L 308.186008 86.876206 
L 308.616014 76.130457 
L 309.04602 86.137717 
L 309.476026 77.218351 
L 309.906033 92.75245 
L 310.336039 76.860778 
L 310.766045 75.701262 
L 311.196051 84.066869 
L 311.626057 83.232734 
L 312.056063 70.62209 
L 312.486069 87.44843 
L 312.916075 76.093868 
L 313.346081 76.224887 
L 313.776087 96.376989 
L 314.206093 75.565326 
L 314.636099 72.456887 
L 315.066105 87.014961 
L 315.496111 77.12003 
L 315.926117 75.314835 
L 316.356123 85.68504 
L 316.786129 90.357612 
L 317.216135 75.606061 
L 317.646141 76.10837 
L 318.076147 83.863799 
L 318.506153 97.972847 
L 318.936159 77.461163 
L 319.366165 81.023646 
L 319.796171 75.434258 
L 320.226177 75.644871 
L 320.656183 76.258133 
L 321.086189 75.016377 
L 321.516195 75.923328 
L 321.946201 83.820642 
L 322.376207 76.640367 
L 322.806213 82.17193 
L 323.236219 76.727477 
L 323.666225 78.614118 
L 324.096231 75.402003 
L 324.526237 75.926052 
L 324.956243 75.823706 
L 325.386249 76.348586 
L 325.816255 79.210521 
L 326.246261 77.14266 
L 326.676267 77.74434 
L 327.106273 77.131196 
L 327.536279 77.999204 
L 327.966285 74.763742 
L 328.396291 74.651517 
L 328.826297 77.512784 
L 329.256303 90.72162 
L 329.686309 76.529104 
L 330.116315 76.111784 
L 330.546321 76.867507 
L 330.976328 76.281063 
L 331.406334 71.259064 
L 331.83634 88.813165 
L 332.266346 77.942649 
L 332.696352 75.644428 
L 333.126358 76.466931 
L 333.556364 75.84892 
L 334.416376 77.283763 
L 334.846382 78.468811 
L 335.276388 83.89143 
L 335.706394 75.836512 
L 336.1364 74.9158 
L 336.566406 90.991142 
L 337.426418 82.964294 
L 337.856424 78.812957 
L 338.716436 104.360156 
L 339.146442 81.775218 
L 340.006454 71.354903 
L 340.43646 88.773732 
L 340.866466 86.727245 
L 341.296472 76.87454 
L 341.726478 85.350242 
L 342.156484 85.759845 
L 342.58649 83.079284 
L 343.016496 81.272318 
L 343.446502 75.444796 
L 343.876508 77.582175 
L 344.306514 77.800811 
L 344.73652 91.000997 
L 345.166526 80.073784 
L 345.596532 79.626947 
L 346.026538 91.836885 
L 346.456544 76.191443 
L 346.88655 75.260618 
L 347.316556 85.389382 
L 347.746562 75.076539 
L 348.606574 88.341265 
L 349.03658 106.219078 
L 349.466586 88.853625 
L 349.896592 97.41579 
L 350.326598 74.48605 
L 350.756604 92.306427 
L 351.18661 87.033111 
L 351.616616 75.886495 
L 352.046623 75.997967 
L 352.476629 85.146457 
L 352.906635 78.800615 
L 353.336641 75.258033 
L 353.766647 76.325638 
L 354.196653 88.562162 
L 354.626659 89.02326 
L 355.056665 89.086976 
L 355.486671 75.578148 
L 355.916677 76.857812 
L 356.346683 86.449076 
L 356.776689 75.097168 
L 357.206695 75.865281 
L 357.636701 74.495435 
L 358.066707 86.306758 
L 358.496713 75.084201 
L 358.926719 77.431901 
L 359.356725 75.016274 
L 359.786731 76.067813 
L 360.216737 76.040587 
L 360.646743 74.116757 
L 361.076749 76.277586 
L 361.506755 75.48595 
L 361.936761 74.196671 
L 362.366767 76.566439 
L 363.226779 75.873576 
L 363.656785 78.087506 
L 364.086791 76.55524 
L 364.516797 76.932553 
L 364.946803 75.754286 
L 365.376809 75.796014 
L 365.806815 84.161266 
L 366.236821 85.634567 
L 366.666827 88.190791 
L 367.096833 88.098122 
L 367.526839 71.978765 
L 367.956845 77.512658 
L 368.386851 74.891092 
L 368.816857 85.967689 
L 369.246863 76.743331 
L 369.676869 88.388985 
L 370.106875 75.603933 
L 370.536881 90.263095 
L 370.966887 80.980659 
L 371.396893 97.031209 
L 372.256905 76.616864 
L 372.686911 94.103883 
L 373.116918 71.813294 
L 373.546924 77.136886 
L 373.97693 76.723474 
L 374.406936 77.43681 
L 374.836942 76.18896 
L 375.266948 76.124305 
L 375.696954 74.56785 
L 376.12696 77.044994 
L 376.556966 75.920868 
L 376.986972 75.833396 
L 377.416978 75.13446 
L 377.846984 74.96809 
L 378.27699 71.857001 
L 378.706996 76.056418 
L 379.137002 76.37959 
L 379.567008 71.595404 
L 379.997014 74.729761 
L 380.42702 75.653237 
L 380.857026 78.139351 
L 381.287032 72.38823 
L 381.717038 74.877151 
L 382.57705 80.488933 
L 383.007056 77.230682 
L 383.437062 81.064448 
L 383.867068 75.206464 
L 384.297074 75.948961 
L 384.72708 77.982339 
L 385.157086 75.364686 
L 385.587092 76.323265 
L 386.017098 76.082574 
L 386.447104 76.606598 
L 386.87711 75.09137 
L 387.307116 75.740959 
L 387.737122 73.778596 
L 388.167128 76.908642 
L 388.597134 78.523749 
L 389.02714 76.38937 
L 389.457146 76.23603 
L 389.887152 70.243312 
L 390.317158 75.521497 
L 390.747164 75.401316 
L 391.17717 76.502555 
L 391.607176 74.759346 
L 392.467188 77.009693 
L 392.897194 75.774866 
L 393.3272 76.647878 
L 393.757207 75.918627 
L 394.187213 76.285885 
L 394.617219 75.568894 
L 395.047225 77.954541 
L 395.477231 74.495275 
L 395.907237 77.429634 
L 396.767249 72.910044 
L 397.627261 78.477331 
L 398.057267 76.023223 
L 398.487273 75.877464 
L 398.487273 75.877464 
" style="fill:none;stroke:#008000;stroke-linecap:square;stroke-width:1.5;"/>
   </g>
   <g id="line2d_32">
    <path clip-path="url(#p2f104fe60f)" d="M 73.832727 67.825774 
L 74.262733 67.193656 
L 74.692739 65.859184 
L 75.122745 67.369244 
L 75.552751 67.193656 
L 75.982757 66.842479 
L 76.412763 67.299009 
L 76.842769 66.772244 
L 77.272775 66.772244 
L 77.702781 66.947832 
L 78.562793 65.824066 
L 78.9928 65.964537 
L 79.422806 66.596655 
L 79.852812 60.205239 
L 80.282818 66.631773 
L 80.712824 65.929419 
L 81.14283 66.456184 
L 81.572836 66.245478 
L 82.002842 67.615068 
L 82.432848 67.685303 
L 82.862854 66.737126 
L 83.29286 65.47289 
L 83.722866 66.210361 
L 84.152872 67.404362 
L 84.582878 67.334126 
L 85.012884 66.877597 
L 85.44289 66.66689 
L 85.872896 63.997948 
L 86.302902 66.52642 
L 86.732908 65.227066 
L 87.162914 67.720421 
L 87.59292 67.685303 
L 88.022926 67.369244 
L 88.452932 66.912714 
L 88.882938 67.825774 
L 89.74295 66.912714 
L 90.172956 67.720421 
L 90.602962 67.474597 
L 91.462974 67.474597 
L 91.89298 64.068183 
L 92.322986 67.299009 
L 92.752992 65.332419 
L 93.182998 66.631773 
L 93.613004 66.702008 
L 94.04301 67.57995 
L 94.473016 66.807361 
L 94.903022 67.509715 
L 95.333028 66.912714 
L 95.763034 67.053185 
L 96.19304 66.807361 
L 96.623046 67.57995 
L 97.053052 67.685303 
L 97.483058 67.228773 
L 97.913064 67.650185 
L 98.34307 66.034772 
L 98.773076 67.404362 
L 99.203082 66.350831 
L 100.063095 67.088303 
L 100.493101 67.228773 
L 100.923107 66.912714 
L 101.353113 66.842479 
L 101.783119 66.385949 
L 102.213125 67.334126 
L 103.503143 67.931127 
L 103.933149 64.384242 
L 104.363155 66.702008 
L 104.793161 66.98295 
L 105.223167 67.088303 
L 105.653173 67.509715 
L 106.083179 67.053185 
L 106.513185 67.860891 
L 106.943191 67.053185 
L 107.373197 67.860891 
L 107.803203 67.158538 
L 108.233209 65.402654 
L 108.663215 66.06989 
L 109.093221 67.474597 
L 109.523227 66.912714 
L 109.953233 65.999655 
L 110.383239 66.702008 
L 111.243251 67.57995 
L 111.673257 64.454477 
L 112.103263 67.650185 
L 112.533269 67.193656 
L 112.963275 66.385949 
L 113.393281 65.191948 
L 113.823287 67.404362 
L 114.253293 67.720421 
L 114.683299 66.280596 
L 115.113305 66.737126 
L 115.543311 58.800533 
L 115.973317 66.807361 
L 116.403323 63.927712 
L 117.263335 66.737126 
L 117.693341 67.57995 
L 118.123347 66.772244 
L 118.553353 66.631773 
L 118.983359 66.877597 
L 119.413365 60.696887 
L 119.843371 66.842479 
L 120.273377 67.755538 
L 120.703384 66.737126 
L 121.13339 66.842479 
L 121.993402 67.685303 
L 122.423408 66.66689 
L 122.853414 67.685303 
L 123.713426 62.874182 
L 124.143432 66.210361 
L 124.573438 64.208654 
L 125.003444 66.561537 
L 125.863456 67.790656 
L 126.723468 67.439479 
L 127.153474 67.544832 
L 127.58348 67.334126 
L 128.013486 66.561537 
L 128.443492 66.842479 
L 128.873498 66.877597 
L 129.303504 68.001362 
L 129.73351 65.683596 
L 130.163516 66.52642 
L 130.593522 65.47289 
L 131.023528 67.158538 
L 131.453534 66.807361 
L 131.88354 67.018067 
L 132.313546 67.755538 
L 132.743552 67.263891 
L 133.173558 67.053185 
L 133.603564 66.52642 
L 134.03357 67.685303 
L 134.463576 67.299009 
L 134.893582 67.509715 
L 135.323588 66.175243 
L 135.753594 67.263891 
L 136.1836 67.158538 
L 136.613606 62.487888 
L 137.043612 66.491302 
L 137.473618 67.158538 
L 137.903624 66.737126 
L 138.33363 67.825774 
L 138.763636 66.702008 
L 139.193642 66.52642 
L 139.623648 66.175243 
L 140.053654 66.772244 
L 140.48366 66.456184 
L 141.343672 64.454477 
L 141.773679 64.454477 
L 142.203685 66.842479 
L 142.633691 64.41936 
L 143.063697 66.947832 
L 143.493703 59.081474 
L 144.353715 67.053185 
L 144.783721 61.996241 
L 145.213727 65.859184 
L 145.643733 62.347417 
L 146.073739 67.334126 
L 146.503745 66.737126 
L 146.933751 63.120006 
L 147.363757 67.439479 
L 147.793763 66.491302 
L 148.223769 66.034772 
L 148.653775 66.315714 
L 149.083781 67.825774 
L 149.513787 64.981242 
L 149.943793 66.280596 
L 150.373799 66.175243 
L 150.803805 65.859184 
L 151.233811 64.594948 
L 151.663817 65.999655 
L 152.093823 67.825774 
L 152.523829 66.06989 
L 152.953835 66.702008 
L 153.383841 65.437772 
L 154.243853 67.790656 
L 155.103865 61.574829 
L 155.533871 67.720421 
L 155.963877 66.561537 
L 156.823889 67.12342 
L 157.253895 66.561537 
L 157.683901 67.334126 
L 158.113907 65.964537 
L 158.543913 66.631773 
L 158.973919 66.702008 
L 159.403925 67.12342 
L 159.833931 65.121713 
L 160.263937 67.193656 
L 160.693943 63.260477 
L 161.123949 60.626651 
L 161.553955 67.790656 
L 162.413967 67.334126 
L 162.843974 66.737126 
L 163.27398 65.156831 
L 163.703986 67.053185 
L 164.133992 66.596655 
L 164.563998 66.596655 
L 164.994004 67.615068 
L 165.42401 67.158538 
L 165.854016 65.332419 
L 166.284022 66.631773 
L 167.144034 66.737126 
L 167.57404 64.911007 
L 168.004046 67.615068 
L 168.434052 67.544832 
L 169.294064 66.98295 
L 169.72407 65.788949 
L 170.154076 66.596655 
L 170.584082 64.454477 
L 171.014088 66.456184 
L 171.444094 66.912714 
L 171.8741 66.66689 
L 172.304106 65.999655 
L 173.164118 58.344003 
L 173.594124 67.544832 
L 174.02413 65.753831 
L 174.454136 67.790656 
L 174.884142 66.702008 
L 175.314148 67.474597 
L 175.744154 66.772244 
L 176.17416 66.737126 
L 176.604166 67.509715 
L 177.034172 67.896009 
L 177.464178 67.685303 
L 177.894184 67.966244 
L 178.32419 67.263891 
L 178.754196 67.790656 
L 179.184202 64.911007 
L 179.614208 66.912714 
L 180.044214 67.018067 
L 180.904226 67.404362 
L 181.334232 64.278889 
L 181.764238 67.369244 
L 182.194244 66.737126 
L 182.62425 67.369244 
L 183.054256 66.456184 
L 183.484262 64.524713 
L 183.914269 66.66689 
L 184.344275 67.334126 
L 184.774281 67.263891 
L 185.204287 67.369244 
L 185.634293 66.947832 
L 186.064299 67.263891 
L 186.494305 67.439479 
L 186.924311 66.350831 
L 187.354317 63.260477 
L 187.784323 66.06989 
L 188.214329 67.228773 
L 188.644335 66.912714 
L 189.074341 66.912714 
L 189.504347 67.57995 
L 190.364359 67.650185 
L 191.224371 66.491302 
L 191.654377 67.158538 
L 192.084383 63.541418 
L 192.514389 67.334126 
L 192.944395 66.105008 
L 193.374401 67.755538 
L 193.804407 67.615068 
L 194.234413 66.315714 
L 194.664419 67.263891 
L 195.094425 66.98295 
L 195.524431 67.860891 
L 195.954437 66.772244 
L 196.384443 66.034772 
L 196.814449 67.228773 
L 197.244455 67.57995 
L 197.674461 67.193656 
L 198.104467 67.053185 
L 198.534473 67.650185 
L 198.964479 67.57995 
L 199.394485 66.350831 
L 199.824491 67.263891 
L 200.254497 67.825774 
L 201.114509 67.860891 
L 201.544515 66.491302 
L 201.974521 67.439479 
L 202.404527 66.561537 
L 202.834533 67.544832 
L 203.264539 67.193656 
L 203.694545 67.299009 
L 204.124551 67.615068 
L 204.984564 67.509715 
L 205.41457 65.964537 
L 205.844576 65.61336 
L 206.274582 65.01636 
L 206.704588 66.631773 
L 207.134594 66.807361 
L 207.5646 63.611653 
L 207.994606 57.747003 
L 208.424612 53.568 
L 208.854618 65.929419 
L 209.284624 67.263891 
L 209.71463 65.648478 
L 210.144636 66.491302 
L 210.574642 66.561537 
L 211.004648 64.489595 
L 211.434654 61.750417 
L 211.86466 66.66689 
L 212.294666 61.680182 
L 212.724672 66.596655 
L 213.154678 67.57995 
L 213.584684 65.718713 
L 214.01469 66.877597 
L 214.444696 67.650185 
L 214.874702 66.807361 
L 215.304708 65.227066 
L 215.734714 66.98295 
L 216.16472 65.262184 
L 216.594726 66.737126 
L 217.024732 66.772244 
L 217.454738 67.474597 
L 217.884744 67.404362 
L 218.31475 66.947832 
L 218.744756 67.439479 
L 219.174762 66.98295 
L 219.604768 67.544832 
L 220.034774 67.720421 
L 220.46478 66.842479 
L 220.894786 67.860891 
L 221.324792 66.842479 
L 221.754798 67.053185 
L 222.184804 67.57995 
L 222.61481 67.790656 
L 223.044816 67.299009 
L 223.474822 67.12342 
L 223.904828 66.52642 
L 224.334834 67.544832 
L 224.76484 67.650185 
L 225.194846 66.456184 
L 225.624852 67.334126 
L 226.054859 67.088303 
L 226.484865 65.683596 
L 226.914871 67.650185 
L 227.344877 66.912714 
L 227.774883 66.491302 
L 228.204889 65.332419 
L 228.634895 66.737126 
L 229.064901 67.088303 
L 229.494907 66.596655 
L 229.924913 62.523006 
L 230.354919 67.158538 
L 230.784925 65.297301 
L 231.214931 67.544832 
L 231.644937 67.57995 
L 232.074943 66.245478 
L 232.504949 67.509715 
L 232.934955 67.57995 
L 233.364961 66.456184 
L 233.794967 67.825774 
L 234.224973 66.631773 
L 234.654979 66.385949 
L 235.084985 67.720421 
L 235.514991 67.299009 
L 235.944997 64.068183 
L 236.805009 67.755538 
L 237.235015 67.439479 
L 237.665021 67.57995 
L 238.095027 66.702008 
L 238.525033 66.421067 
L 238.955039 67.755538 
L 239.385045 67.720421 
L 239.815051 65.894302 
L 240.245057 67.404362 
L 240.675063 67.650185 
L 241.105069 67.755538 
L 241.535075 66.947832 
L 241.965081 67.685303 
L 242.825093 65.718713 
L 243.255099 66.772244 
L 243.685105 65.788949 
L 244.115111 67.334126 
L 244.545117 66.66689 
L 244.975123 67.720421 
L 245.405129 67.439479 
L 245.835135 67.720421 
L 246.265141 67.088303 
L 246.695148 66.947832 
L 247.125154 67.053185 
L 247.55516 67.57995 
L 247.985166 67.755538 
L 248.415172 66.596655 
L 248.845178 67.790656 
L 249.275184 67.720421 
L 249.70519 66.596655 
L 250.135196 67.12342 
L 250.565202 66.52642 
L 250.995208 67.615068 
L 251.425214 67.193656 
L 251.85522 66.52642 
L 252.285226 66.912714 
L 252.715232 65.964537 
L 253.145238 67.404362 
L 253.575244 67.755538 
L 254.00525 67.263891 
L 254.435256 67.720421 
L 255.295268 65.859184 
L 255.725274 66.66689 
L 256.15528 66.66689 
L 256.585286 66.807361 
L 257.015292 67.12342 
L 257.445298 67.228773 
L 257.875304 66.491302 
L 258.30531 67.615068 
L 258.735316 67.299009 
L 259.165322 66.245478 
L 259.595328 67.544832 
L 260.025334 66.596655 
L 260.45534 66.421067 
L 260.885346 67.299009 
L 261.315352 66.491302 
L 261.745358 66.66689 
L 262.175364 66.702008 
L 262.60537 67.544832 
L 263.465382 66.561537 
L 263.895388 67.228773 
L 264.325394 66.912714 
L 264.7554 67.509715 
L 265.185406 67.193656 
L 265.615412 67.193656 
L 266.475424 66.421067 
L 266.90543 67.720421 
L 267.335436 66.807361 
L 267.765443 67.650185 
L 268.195449 67.790656 
L 268.625455 67.404362 
L 269.055461 66.491302 
L 269.485467 67.509715 
L 269.915473 67.088303 
L 270.345479 67.509715 
L 270.775485 65.648478 
L 271.205491 67.12342 
L 271.635497 66.561537 
L 272.065503 67.299009 
L 272.495509 67.474597 
L 272.925515 67.053185 
L 273.355521 67.650185 
L 273.785527 65.227066 
L 274.215533 66.350831 
L 274.645539 66.631773 
L 275.075545 61.961123 
L 275.505551 67.720421 
L 275.935557 66.807361 
L 276.365563 66.350831 
L 276.795569 67.509715 
L 277.225575 66.385949 
L 277.655581 61.188534 
L 278.085587 65.929419 
L 278.515593 66.98295 
L 278.945599 58.589827 
L 279.805611 67.12342 
L 280.235617 66.947832 
L 280.665623 65.01636 
L 281.095629 61.574829 
L 281.525635 62.45277 
L 281.955641 64.946125 
L 282.385647 66.140125 
L 282.815653 65.999655 
L 283.245659 66.842479 
L 283.675665 66.737126 
L 284.105671 67.299009 
L 284.535677 61.820652 
L 284.965683 67.088303 
L 285.395689 65.999655 
L 285.825695 67.228773 
L 286.255701 66.421067 
L 286.685707 66.456184 
L 287.115713 67.228773 
L 287.545719 66.877597 
L 287.975725 65.753831 
L 288.405731 65.01636 
L 288.835738 67.720421 
L 289.265744 67.018067 
L 289.69575 67.685303 
L 290.125756 65.262184 
L 290.555762 66.52642 
L 290.985768 66.877597 
L 291.415774 67.439479 
L 291.84578 67.615068 
L 292.275786 64.665183 
L 292.705792 67.615068 
L 293.135798 67.790656 
L 293.99581 66.491302 
L 294.425816 67.228773 
L 294.855822 67.018067 
L 295.285828 67.228773 
L 295.715834 66.385949 
L 296.14584 66.421067 
L 296.575846 67.825774 
L 297.005852 66.702008 
L 297.435858 66.807361 
L 297.865864 67.263891 
L 298.725876 66.596655 
L 299.155882 67.12342 
L 299.585888 66.456184 
L 300.015894 67.299009 
L 300.4459 67.369244 
L 300.875906 66.98295 
L 301.305912 67.228773 
L 301.735918 67.263891 
L 302.165924 67.474597 
L 302.59593 67.509715 
L 303.025936 66.66689 
L 303.455942 66.842479 
L 303.885948 67.544832 
L 304.315954 67.615068 
L 305.175966 66.737126 
L 305.605972 67.650185 
L 306.035978 66.596655 
L 306.465984 67.158538 
L 306.89599 66.66689 
L 307.325996 67.263891 
L 307.756002 67.334126 
L 308.186008 67.720421 
L 308.616014 66.702008 
L 309.04602 67.825774 
L 309.476026 66.52642 
L 309.906033 66.52642 
L 310.336039 66.315714 
L 311.196051 67.57995 
L 311.626057 67.685303 
L 312.056063 65.999655 
L 312.486069 67.615068 
L 312.916075 67.860891 
L 313.346081 66.631773 
L 313.776087 66.737126 
L 314.206093 66.456184 
L 315.066105 67.685303 
L 315.496111 67.615068 
L 315.926117 67.053185 
L 316.356123 67.615068 
L 317.216135 66.842479 
L 317.646141 67.369244 
L 318.076147 67.615068 
L 318.506153 66.385949 
L 318.936159 66.98295 
L 319.366165 66.140125 
L 319.796171 66.842479 
L 320.226177 67.299009 
L 320.656183 67.369244 
L 321.086189 66.421067 
L 321.516195 67.615068 
L 321.946201 66.842479 
L 322.376207 67.334126 
L 322.806213 67.299009 
L 323.236219 66.456184 
L 323.666225 66.280596 
L 324.096231 66.66689 
L 324.526237 66.491302 
L 324.956243 67.053185 
L 325.386249 67.263891 
L 325.816255 66.421067 
L 326.246261 66.631773 
L 326.676267 66.456184 
L 327.106273 67.755538 
L 327.536279 66.772244 
L 327.966285 67.57995 
L 328.396291 66.66689 
L 328.826297 66.350831 
L 329.256303 67.193656 
L 329.686309 67.755538 
L 330.116315 67.474597 
L 330.546321 67.685303 
L 330.976328 66.421067 
L 331.406334 66.737126 
L 331.83634 67.263891 
L 332.696352 67.299009 
L 333.126358 67.790656 
L 333.98637 67.193656 
L 334.416376 66.631773 
L 334.846382 66.737126 
L 335.276388 65.964537 
L 335.706394 67.57995 
L 336.566406 64.630066 
L 336.996412 66.596655 
L 337.856424 66.631773 
L 338.28643 67.158538 
L 338.716436 63.436065 
L 339.146442 66.596655 
L 339.576448 66.877597 
L 340.006454 66.491302 
L 340.43646 67.685303 
L 340.866466 66.210361 
L 341.296472 67.228773 
L 341.726478 67.544832 
L 342.156484 67.615068 
L 342.58649 66.350831 
L 343.016496 66.315714 
L 343.446502 67.615068 
L 343.876508 66.456184 
L 345.166526 66.912714 
L 345.596532 67.439479 
L 346.026538 67.158538 
L 346.456544 67.650185 
L 346.88655 67.439479 
L 347.746562 67.685303 
L 348.176568 67.790656 
L 348.606574 67.404362 
L 349.03658 66.52642 
L 349.466586 67.12342 
L 349.896592 66.702008 
L 350.326598 67.755538 
L 351.18661 66.631773 
L 351.616616 67.12342 
L 352.476629 67.650185 
L 352.906635 67.158538 
L 353.336641 67.685303 
L 353.766647 66.947832 
L 354.196653 67.299009 
L 354.626659 66.842479 
L 355.056665 66.737126 
L 355.486671 67.825774 
L 355.916677 66.947832 
L 356.346683 67.650185 
L 356.776689 67.12342 
L 357.206695 67.299009 
L 357.636701 67.685303 
L 358.066707 65.262184 
L 358.496713 67.615068 
L 358.926719 67.474597 
L 359.356725 67.720421 
L 359.786731 67.263891 
L 361.076749 67.369244 
L 361.506755 66.561537 
L 361.936761 66.491302 
L 362.366767 67.193656 
L 362.796773 66.631773 
L 363.226779 67.790656 
L 363.656785 66.947832 
L 364.086791 67.12342 
L 364.516797 66.98295 
L 364.946803 67.685303 
L 365.376809 67.860891 
L 366.666827 67.053185 
L 367.096833 67.474597 
L 367.526839 66.631773 
L 367.956845 66.772244 
L 368.386851 67.544832 
L 368.816857 67.369244 
L 369.246863 67.474597 
L 370.106875 67.12342 
L 370.966887 67.615068 
L 371.396893 61.890888 
L 371.826899 66.877597 
L 372.256905 67.193656 
L 372.686911 66.98295 
L 373.116918 66.315714 
L 373.546924 67.158538 
L 373.97693 66.98295 
L 374.406936 67.158538 
L 374.836942 66.315714 
L 375.266948 67.57995 
L 375.696954 66.491302 
L 376.12696 66.807361 
L 376.556966 66.912714 
L 376.986972 67.720421 
L 377.416978 66.561537 
L 377.846984 67.825774 
L 378.27699 66.702008 
L 379.137002 67.615068 
L 379.567008 67.334126 
L 379.997014 67.615068 
L 380.42702 66.98295 
L 380.857026 66.947832 
L 381.287032 67.509715 
L 381.717038 67.57995 
L 382.147044 66.315714 
L 382.57705 67.193656 
L 383.007056 66.52642 
L 383.437062 67.544832 
L 383.867068 67.790656 
L 384.72708 66.421067 
L 385.157086 67.720421 
L 386.017098 67.12342 
L 386.447104 67.544832 
L 386.87711 67.615068 
L 387.307116 66.912714 
L 387.737122 67.720421 
L 388.167128 66.491302 
L 388.597134 67.158538 
L 389.02714 66.877597 
L 389.457146 67.263891 
L 389.887152 66.772244 
L 390.317158 66.98295 
L 390.747164 67.474597 
L 391.17717 66.52642 
L 391.607176 67.720421 
L 392.037182 67.018067 
L 392.467188 66.561537 
L 392.897194 67.12342 
L 393.3272 67.404362 
L 393.757207 66.947832 
L 394.187213 67.790656 
L 395.047225 67.018067 
L 395.477231 67.825774 
L 395.907237 67.053185 
L 396.337243 66.772244 
L 396.767249 67.088303 
L 397.197255 66.737126 
L 397.627261 66.702008 
L 398.057267 67.615068 
L 398.487273 66.807361 
L 398.487273 66.807361 
" style="fill:none;stroke:#0000ff;stroke-linecap:square;stroke-width:1.5;"/>
   </g>
   <g id="patch_3">
    <path d="M 57.6 307.584 
L 57.6 41.472 
" style="fill:none;stroke:#000000;stroke-linecap:square;stroke-linejoin:miter;stroke-width:0.8;"/>
   </g>
   <g id="patch_4">
    <path d="M 414.72 307.584 
L 414.72 41.472 
" style="fill:none;stroke:#000000;stroke-linecap:square;stroke-linejoin:miter;stroke-width:0.8;"/>
   </g>
   <g id="patch_5">
    <path d="M 57.6 307.584 
L 414.72 307.584 
" style="fill:none;stroke:#000000;stroke-linecap:square;stroke-linejoin:miter;stroke-width:0.8;"/>
   </g>
   <g id="patch_6">
    <path d="M 57.6 41.472 
L 414.72 41.472 
" style="fill:none;stroke:#000000;stroke-linecap:square;stroke-linejoin:miter;stroke-width:0.8;"/>
   </g>
   <g id="legend_1">
    <g id="patch_7">
     <path d="M 64.6 302.584 
L 128.475 302.584 
Q 130.475 302.584 130.475 300.584 
L 130.475 272.22775 
Q 130.475 270.22775 128.475 270.22775 
L 64.6 270.22775 
Q 62.6 270.22775 62.6 272.22775 
L 62.6 300.584 
Q 62.6 302.584 64.6 302.584 
z
" style="fill:#ffffff;opacity:0.8;stroke:#cccccc;stroke-linejoin:miter;"/>
    </g>
    <g id="line2d_33">
     <path d="M 66.6 278.326187 
L 86.6 278.326187 
" style="fill:none;stroke:#008000;stroke-linecap:square;stroke-width:1.5;"/>
    </g>
    <g id="line2d_34"/>
    <g id="text_16">
     <!-- score -->
     <defs>
      <path d="M 44.28125 53.078125 
L 44.28125 44.578125 
Q 40.484375 46.53125 36.375 47.5 
Q 32.28125 48.484375 27.875 48.484375 
Q 21.1875 48.484375 17.84375 46.4375 
Q 14.5 44.390625 14.5 40.28125 
Q 14.5 37.15625 16.890625 35.375 
Q 19.28125 33.59375 26.515625 31.984375 
L 29.59375 31.296875 
Q 39.15625 29.25 43.1875 25.515625 
Q 47.21875 21.78125 47.21875 15.09375 
Q 47.21875 7.46875 41.1875 3.015625 
Q 35.15625 -1.421875 24.609375 -1.421875 
Q 20.21875 -1.421875 15.453125 -0.5625 
Q 10.6875 0.296875 5.421875 2 
L 5.421875 11.28125 
Q 10.40625 8.6875 15.234375 7.390625 
Q 20.0625 6.109375 24.8125 6.109375 
Q 31.15625 6.109375 34.5625 8.28125 
Q 37.984375 10.453125 37.984375 14.40625 
Q 37.984375 18.0625 35.515625 20.015625 
Q 33.0625 21.96875 24.703125 23.78125 
L 21.578125 24.515625 
Q 13.234375 26.265625 9.515625 29.90625 
Q 5.8125 33.546875 5.8125 39.890625 
Q 5.8125 47.609375 11.28125 51.796875 
Q 16.75 56 26.8125 56 
Q 31.78125 56 36.171875 55.265625 
Q 40.578125 54.546875 44.28125 53.078125 
" id="DejaVuSans-73"/>
      <path d="M 48.78125 52.59375 
L 48.78125 44.1875 
Q 44.96875 46.296875 41.140625 47.34375 
Q 37.3125 48.390625 33.40625 48.390625 
Q 24.65625 48.390625 19.8125 42.84375 
Q 14.984375 37.3125 14.984375 27.296875 
Q 14.984375 17.28125 19.8125 11.734375 
Q 24.65625 6.203125 33.40625 6.203125 
Q 37.3125 6.203125 41.140625 7.25 
Q 44.96875 8.296875 48.78125 10.40625 
L 48.78125 2.09375 
Q 45.015625 0.34375 40.984375 -0.53125 
Q 36.96875 -1.421875 32.421875 -1.421875 
Q 20.0625 -1.421875 12.78125 6.34375 
Q 5.515625 14.109375 5.515625 27.296875 
Q 5.515625 40.671875 12.859375 48.328125 
Q 20.21875 56 33.015625 56 
Q 37.15625 56 41.109375 55.140625 
Q 45.0625 54.296875 48.78125 52.59375 
" id="DejaVuSans-63"/>
      <path d="M 30.609375 48.390625 
Q 23.390625 48.390625 19.1875 42.75 
Q 14.984375 37.109375 14.984375 27.296875 
Q 14.984375 17.484375 19.15625 11.84375 
Q 23.34375 6.203125 30.609375 6.203125 
Q 37.796875 6.203125 41.984375 11.859375 
Q 46.1875 17.53125 46.1875 27.296875 
Q 46.1875 37.015625 41.984375 42.703125 
Q 37.796875 48.390625 30.609375 48.390625 
M 30.609375 56 
Q 42.328125 56 49.015625 48.375 
Q 55.71875 40.765625 55.71875 27.296875 
Q 55.71875 13.875 49.015625 6.21875 
Q 42.328125 -1.421875 30.609375 -1.421875 
Q 18.84375 -1.421875 12.171875 6.21875 
Q 5.515625 13.875 5.515625 27.296875 
Q 5.515625 40.765625 12.171875 48.375 
Q 18.84375 56 30.609375 56 
" id="DejaVuSans-6f"/>
      <path d="M 41.109375 46.296875 
Q 39.59375 47.171875 37.8125 47.578125 
Q 36.03125 48 33.890625 48 
Q 26.265625 48 22.1875 43.046875 
Q 18.109375 38.09375 18.109375 28.8125 
L 18.109375 0 
L 9.078125 0 
L 9.078125 54.6875 
L 18.109375 54.6875 
L 18.109375 46.1875 
Q 20.953125 51.171875 25.484375 53.578125 
Q 30.03125 56 36.53125 56 
Q 37.453125 56 38.578125 55.875 
Q 39.703125 55.765625 41.0625 55.515625 
z
" id="DejaVuSans-72"/>
      <path d="M 56.203125 29.59375 
L 56.203125 25.203125 
L 14.890625 25.203125 
Q 15.484375 15.921875 20.484375 11.0625 
Q 25.484375 6.203125 34.421875 6.203125 
Q 39.59375 6.203125 44.453125 7.46875 
Q 49.3125 8.734375 54.109375 11.28125 
L 54.109375 2.78125 
Q 49.265625 0.734375 44.1875 -0.34375 
Q 39.109375 -1.421875 33.890625 -1.421875 
Q 20.796875 -1.421875 13.15625 6.1875 
Q 5.515625 13.8125 5.515625 26.8125 
Q 5.515625 40.234375 12.765625 48.109375 
Q 20.015625 56 32.328125 56 
Q 43.359375 56 49.78125 48.890625 
Q 56.203125 41.796875 56.203125 29.59375 
M 47.21875 32.234375 
Q 47.125 39.59375 43.09375 43.984375 
Q 39.0625 48.390625 32.421875 48.390625 
Q 24.90625 48.390625 20.390625 44.140625 
Q 15.875 39.890625 15.1875 32.171875 
z
" id="DejaVuSans-65"/>
     </defs>
     <g transform="translate(94.6 281.826187)scale(0.1 -0.1)">
      <use xlink:href="#DejaVuSans-73"/>
      <use x="52.099609" xlink:href="#DejaVuSans-63"/>
      <use x="107.080078" xlink:href="#DejaVuSans-6f"/>
      <use x="168.261719" xlink:href="#DejaVuSans-72"/>
      <use x="209.34375" xlink:href="#DejaVuSans-65"/>
     </g>
    </g>
    <g id="line2d_35">
     <path d="M 66.6 293.004312 
L 86.6 293.004312 
" style="fill:none;stroke:#0000ff;stroke-linecap:square;stroke-width:1.5;"/>
    </g>
    <g id="line2d_36"/>
    <g id="text_17">
     <!-- length -->
     <defs>
      <path d="M 9.421875 75.984375 
L 18.40625 75.984375 
L 18.40625 0 
L 9.421875 0 
z
" id="DejaVuSans-6c"/>
      <path d="M 54.890625 33.015625 
L 54.890625 0 
L 45.90625 0 
L 45.90625 32.71875 
Q 45.90625 40.484375 42.875 44.328125 
Q 39.84375 48.1875 33.796875 48.1875 
Q 26.515625 48.1875 22.3125 43.546875 
Q 18.109375 38.921875 18.109375 30.90625 
L 18.109375 0 
L 9.078125 0 
L 9.078125 54.6875 
L 18.109375 54.6875 
L 18.109375 46.1875 
Q 21.34375 51.125 25.703125 53.5625 
Q 30.078125 56 35.796875 56 
Q 45.21875 56 50.046875 50.171875 
Q 54.890625 44.34375 54.890625 33.015625 
" id="DejaVuSans-6e"/>
      <path d="M 45.40625 27.984375 
Q 45.40625 37.75 41.375 43.109375 
Q 37.359375 48.484375 30.078125 48.484375 
Q 22.859375 48.484375 18.828125 43.109375 
Q 14.796875 37.75 14.796875 27.984375 
Q 14.796875 18.265625 18.828125 12.890625 
Q 22.859375 7.515625 30.078125 7.515625 
Q 37.359375 7.515625 41.375 12.890625 
Q 45.40625 18.265625 45.40625 27.984375 
M 54.390625 6.78125 
Q 54.390625 -7.171875 48.1875 -13.984375 
Q 42 -20.796875 29.203125 -20.796875 
Q 24.46875 -20.796875 20.265625 -20.09375 
Q 16.0625 -19.390625 12.109375 -17.921875 
L 12.109375 -9.1875 
Q 16.0625 -11.328125 19.921875 -12.34375 
Q 23.78125 -13.375 27.78125 -13.375 
Q 36.625 -13.375 41.015625 -8.765625 
Q 45.40625 -4.15625 45.40625 5.171875 
L 45.40625 9.625 
Q 42.625 4.78125 38.28125 2.390625 
Q 33.9375 0 27.875 0 
Q 17.828125 0 11.671875 7.65625 
Q 5.515625 15.328125 5.515625 27.984375 
Q 5.515625 40.671875 11.671875 48.328125 
Q 17.828125 56 27.875 56 
Q 33.9375 56 38.28125 53.609375 
Q 42.625 51.21875 45.40625 46.390625 
L 45.40625 54.6875 
L 54.390625 54.6875 
z
" id="DejaVuSans-67"/>
      <path d="M 18.3125 70.21875 
L 18.3125 54.6875 
L 36.8125 54.6875 
L 36.8125 47.703125 
L 18.3125 47.703125 
L 18.3125 18.015625 
Q 18.3125 11.328125 20.140625 9.421875 
Q 21.96875 7.515625 27.59375 7.515625 
L 36.8125 7.515625 
L 36.8125 0 
L 27.59375 0 
Q 17.1875 0 13.234375 3.875 
Q 9.28125 7.765625 9.28125 18.015625 
L 9.28125 47.703125 
L 2.6875 47.703125 
L 2.6875 54.6875 
L 9.28125 54.6875 
L 9.28125 70.21875 
z
" id="DejaVuSans-74"/>
      <path d="M 54.890625 33.015625 
L 54.890625 0 
L 45.90625 0 
L 45.90625 32.71875 
Q 45.90625 40.484375 42.875 44.328125 
Q 39.84375 48.1875 33.796875 48.1875 
Q 26.515625 48.1875 22.3125 43.546875 
Q 18.109375 38.921875 18.109375 30.90625 
L 18.109375 0 
L 9.078125 0 
L 9.078125 75.984375 
L 18.109375 75.984375 
L 18.109375 46.1875 
Q 21.34375 51.125 25.703125 53.5625 
Q 30.078125 56 35.796875 56 
Q 45.21875 56 50.046875 50.171875 
Q 54.890625 44.34375 54.890625 33.015625 
" id="DejaVuSans-68"/>
     </defs>
     <g transform="translate(94.6 296.504312)scale(0.1 -0.1)">
      <use xlink:href="#DejaVuSans-6c"/>
      <use x="27.783203" xlink:href="#DejaVuSans-65"/>
      <use x="89.306641" xlink:href="#DejaVuSans-6e"/>
      <use x="152.685547" xlink:href="#DejaVuSans-67"/>
      <use x="216.162109" xlink:href="#DejaVuSans-74"/>
      <use x="255.371094" xlink:href="#DejaVuSans-68"/>
     </g>
    </g>
   </g>
  </g>
 </g>
 <defs>
  <clipPath id="p2f104fe60f">
   <rect height="266.112" width="357.12" x="57.6" y="41.472"/>
  </clipPath>
 </defs>
</svg>
