<?xml version="1.0" encoding="UTF-8" standalone="no"?>
<!DOCTYPE svg PUBLIC "-//W3C//DTD SVG 1.1//EN"
 "http://www.w3.org/Graphics/SVG/1.1/DTD/svg11.dtd">
<!-- Generated by graphviz version 2.38.0 (20140413.2041)
 -->
<!-- Title: %3 Pages: 1 -->
<svg width="220pt" height="251pt"
 viewBox="0.00 0.00 219.96 251.38" xmlns="http://www.w3.org/2000/svg" xmlns:xlink="http://www.w3.org/1999/xlink">
<g id="graph0" class="graph" transform="scale(1 1) rotate(0) translate(4 247.38)">
<title>%3</title>
<polygon fill="white" stroke="none" points="-4,4 -4,-247.38 215.961,-247.38 215.961,4 -4,4"/>
<!-- x -->
<g id="node1" class="node"><title>x</title>
<polygon fill="lightgray" stroke="black" points="40.9979,-243.38 19.9979,-243.38 19.9979,-225.38 40.9979,-225.38 40.9979,-243.38"/>
<text text-anchor="middle" x="30.4979" y="-232.18" font-family="Times,serif" font-size="9.00">x</text>
</g>
<!-- dx -->
<g id="node2" class="node"><title>dx</title>
<polygon fill="lightgray" stroke="black" points="85.4979,-243.38 59.4979,-243.38 59.4979,-225.38 85.4979,-225.38 85.4979,-243.38"/>
<text text-anchor="middle" x="72.4979" y="-232.18" font-family="Times,serif" font-size="9.00">dx</text>
</g>
<!-- control -->
<g id="node5" class="node"><title>control</title>
<ellipse fill="lightblue" stroke="black" cx="139.498" cy="-94.6899" rx="28.9828" ry="28.9828"/>
<text text-anchor="middle" x="139.498" y="-92.4899" font-family="Times,serif" font-size="9.00">control</text>
</g>
<!-- dx&#45;&gt;control -->
<g id="edge4" class="edge"><title>dx&#45;&gt;control</title>
<path fill="none" stroke="green" stroke-width="0.654964" d="M75.6372,-225.063C80.9245,-211.267 92.1447,-182.869 103.498,-159.681 108.519,-149.426 114.434,-138.513 120.003,-128.657"/>
<polygon fill="green" stroke="green" stroke-width="0.654964" points="123.055,-130.371 124.984,-119.953 116.979,-126.894 123.055,-130.371"/>
</g>
<!-- 1 -->
<g id="node6" class="node"><title>1</title>
<ellipse fill="white" stroke="black" cx="41.4979" cy="-174.53" rx="14.7" ry="14.7"/>
<text text-anchor="middle" x="41.4979" y="-172.33" font-family="Times,serif" font-size="9.00">1</text>
</g>
<!-- dx&#45;&gt;1 -->
<g id="edge2" class="edge"><title>dx&#45;&gt;1</title>
<path fill="none" stroke="red" stroke-width="0.136648" d="M68.1875,-225.336C64.254,-217.996 58.2618,-206.814 52.9511,-196.903"/>
<polygon fill="red" stroke="red" stroke-width="0.136648" points="55.9661,-195.119 48.1577,-187.958 49.7961,-198.426 55.9661,-195.119"/>
</g>
<!-- theta -->
<g id="node3" class="node"><title>theta</title>
<polygon fill="lightgray" stroke="black" points="155.998,-243.38 122.998,-243.38 122.998,-225.38 155.998,-225.38 155.998,-243.38"/>
<text text-anchor="middle" x="139.498" y="-232.18" font-family="Times,serif" font-size="9.00">theta</text>
</g>
<!-- theta&#45;&gt;control -->
<g id="edge10" class="edge"><title>theta&#45;&gt;control</title>
<path fill="none" stroke="green" stroke-width="0.765694" d="M156.171,-227.915C172.573,-221.542 196.679,-209.266 207.498,-189.38 213.806,-177.785 212.734,-171.798 207.498,-159.681 200.149,-142.675 185.81,-128.1 172.187,-117.174"/>
<polygon fill="green" stroke="green" stroke-width="0.765694" points="173.946,-114.116 163.866,-110.854 169.712,-119.69 173.946,-114.116"/>
</g>
<!-- 3 -->
<g id="node7" class="node"><title>3</title>
<ellipse fill="white" stroke="black" cx="127.498" cy="-174.53" rx="14.7" ry="14.7"/>
<text text-anchor="middle" x="127.498" y="-172.33" font-family="Times,serif" font-size="9.00">3</text>
</g>
<!-- theta&#45;&gt;3 -->
<g id="edge9" class="edge"><title>theta&#45;&gt;3</title>
<path fill="none" stroke="red" stroke-width="0.342016" d="M137.829,-225.336C136.426,-218.569 134.345,-208.537 132.417,-199.247"/>
<polygon fill="red" stroke="red" stroke-width="0.342016" points="135.81,-198.366 130.351,-189.286 128.955,-199.788 135.81,-198.366"/>
</g>
<!-- dtheta -->
<g id="node4" class="node"><title>dtheta</title>
<polygon fill="lightgray" stroke="black" points="198.498,-183.53 160.498,-183.53 160.498,-165.53 198.498,-165.53 198.498,-183.53"/>
<text text-anchor="middle" x="179.498" y="-172.33" font-family="Times,serif" font-size="9.00">dtheta</text>
</g>
<!-- dtheta&#45;&gt;control -->
<g id="edge5" class="edge"><title>dtheta&#45;&gt;control</title>
<path fill="none" stroke="green" stroke-width="1.58216" d="M175.368,-165.493C170.989,-156.972 163.777,-142.938 156.964,-129.68"/>
<polygon fill="green" stroke="green" stroke-width="1.58216" points="160.035,-127.997 152.351,-120.702 153.809,-131.196 160.035,-127.997"/>
</g>
<!-- 1&#45;&gt;control -->
<g id="edge8" class="edge"><title>1&#45;&gt;control</title>
<path fill="none" stroke="red" stroke-width="0.570032" d="M52.7398,-164.601C66.3772,-153.769 89.9154,-135.073 109.036,-119.885"/>
<polygon fill="red" stroke="red" stroke-width="0.570032" points="111.265,-122.585 116.919,-113.624 106.911,-117.103 111.265,-122.585"/>
</g>
<!-- 4 -->
<g id="node8" class="node"><title>4</title>
<ellipse fill="white" stroke="black" cx="31.4979" cy="-14.8492" rx="14.7" ry="14.7"/>
<text text-anchor="middle" x="31.4979" y="-12.6492" font-family="Times,serif" font-size="9.00">4</text>
</g>
<!-- 1&#45;&gt;4 -->
<g id="edge11" class="edge"><title>1&#45;&gt;4</title>
<path fill="none" stroke="red" stroke-width="0.160569" stroke-dasharray="1,5" d="M31.3157,-163.545C22.556,-154.186 10.5557,-139.324 5.49793,-123.681 -2.43038,-99.161 -0.637162,-90.7277 5.49793,-65.6985 8.02356,-55.3947 13.0912,-44.8547 18.0871,-36.1363"/>
<polygon fill="red" stroke="red" stroke-width="0.160569" points="21.1419,-37.8491 23.3563,-27.4882 15.1641,-34.2068 21.1419,-37.8491"/>
</g>
<!-- 5 -->
<g id="node9" class="node"><title>5</title>
<ellipse fill="white" stroke="black" cx="29.4979" cy="-94.6899" rx="14.7" ry="14.7"/>
<text text-anchor="middle" x="29.4979" y="-92.4899" font-family="Times,serif" font-size="9.00">5</text>
</g>
<!-- 1&#45;&gt;5 -->
<g id="edge7" class="edge"><title>1&#45;&gt;5</title>
<path fill="none" stroke="green" stroke-width="0.670448" d="M39.3526,-159.614C37.6461,-148.545 35.2183,-132.797 33.1995,-119.701"/>
<polygon fill="green" stroke="green" stroke-width="0.670448" points="36.6075,-118.836 31.6247,-109.486 29.6893,-119.902 36.6075,-118.836"/>
</g>
<!-- 6 -->
<g id="node10" class="node"><title>6</title>
<ellipse fill="white" stroke="black" cx="77.4979" cy="-94.6899" rx="14.7" ry="14.7"/>
<text text-anchor="middle" x="77.4979" y="-92.4899" font-family="Times,serif" font-size="9.00">6</text>
</g>
<!-- 1&#45;&gt;6 -->
<g id="edge3" class="edge"><title>1&#45;&gt;6</title>
<path fill="none" stroke="green" stroke-width="0.107327" d="M47.4426,-160.677C52.81,-149.071 60.8243,-131.742 67.2275,-117.897"/>
<polygon fill="green" stroke="green" stroke-width="0.107327" points="70.5234,-119.108 71.5444,-108.563 64.17,-116.17 70.5234,-119.108"/>
</g>
<!-- 3&#45;&gt;control -->
<g id="edge6" class="edge"><title>3&#45;&gt;control</title>
<path fill="none" stroke="green" stroke-width="0.835102" d="M129.643,-159.614C130.772,-152.292 132.216,-142.923 133.649,-133.628"/>
<polygon fill="green" stroke="green" stroke-width="0.835102" points="137.12,-134.088 135.184,-123.672 130.201,-133.022 137.12,-134.088"/>
</g>
<!-- 6&#45;&gt;4 -->
<g id="edge1" class="edge"><title>6&#45;&gt;4</title>
<path fill="none" stroke="green" stroke-width="0.197974" stroke-dasharray="1,5" d="M70.3104,-81.5273C63.2214,-69.5313 52.248,-50.9623 43.7755,-36.6252"/>
<polygon fill="green" stroke="green" stroke-width="0.197974" points="46.7358,-34.7549 38.635,-27.9264 40.7094,-38.3162 46.7358,-34.7549"/>
</g>
</g>
</svg>
