<?xml version="1.0" encoding="UTF-8" standalone="no"?>
<!DOCTYPE svg PUBLIC "-//W3C//DTD SVG 1.1//EN"
 "http://www.w3.org/Graphics/SVG/1.1/DTD/svg11.dtd">
<!-- Generated by graphviz version 2.38.0 (20140413.2041)
 -->
<!-- Title: %3 Pages: 1 -->
<svg width="229pt" height="197pt"
 viewBox="0.00 0.00 229.26 197.38" xmlns="http://www.w3.org/2000/svg" xmlns:xlink="http://www.w3.org/1999/xlink">
<g id="graph0" class="graph" transform="scale(1 1) rotate(0) translate(4 193.38)">
<title>%3</title>
<polygon fill="white" stroke="none" points="-4,4 -4,-193.38 225.262,-193.38 225.262,4 -4,4"/>
<!-- x -->
<g id="node1" class="node"><title>x</title>
<polygon fill="lightgray" stroke="black" points="50.3492,-183.53 29.3492,-183.53 29.3492,-165.53 50.3492,-165.53 50.3492,-183.53"/>
<text text-anchor="middle" x="39.8492" y="-172.33" font-family="Times,serif" font-size="9.00">x</text>
</g>
<!-- dx -->
<g id="node2" class="node"><title>dx</title>
<polygon fill="lightgray" stroke="black" points="94.8492,-183.53 68.8492,-183.53 68.8492,-165.53 94.8492,-165.53 94.8492,-183.53"/>
<text text-anchor="middle" x="81.8492" y="-172.33" font-family="Times,serif" font-size="9.00">dx</text>
</g>
<!-- control -->
<g id="node5" class="node"><title>control</title>
<ellipse fill="lightblue" stroke="black" cx="136.849" cy="-28.9914" rx="28.9828" ry="28.9828"/>
<text text-anchor="middle" x="136.849" y="-26.7914" font-family="Times,serif" font-size="9.00">control</text>
</g>
<!-- dx&#45;&gt;control -->
<g id="edge3" class="edge"><title>dx&#45;&gt;control</title>
<path fill="none" stroke="green" stroke-width="0.654964" d="M84.9639,-165.402C92.1615,-146.618 110.31,-99.2534 123.106,-65.8582"/>
<polygon fill="green" stroke="green" stroke-width="0.654964" points="126.414,-67.0082 126.723,-56.4179 119.877,-64.5036 126.414,-67.0082"/>
</g>
<!-- 1 -->
<g id="node6" class="node"><title>1</title>
<ellipse fill="white" stroke="black" cx="50.8492" cy="-108.832" rx="14.7" ry="14.7"/>
<text text-anchor="middle" x="50.8492" y="-106.632" font-family="Times,serif" font-size="9.00">1</text>
</g>
<!-- dx&#45;&gt;1 -->
<g id="edge1" class="edge"><title>dx&#45;&gt;1</title>
<path fill="none" stroke="red" stroke-width="0.136648" d="M77.9231,-165.463C73.7991,-156.989 67.1355,-143.297 61.4513,-131.617"/>
<polygon fill="red" stroke="red" stroke-width="0.136648" points="64.5074,-129.898 56.9843,-122.438 58.2132,-132.962 64.5074,-129.898"/>
</g>
<!-- theta -->
<g id="node3" class="node"><title>theta</title>
<polygon fill="lightgray" stroke="black" points="165.349,-183.53 132.349,-183.53 132.349,-165.53 165.349,-165.53 165.349,-183.53"/>
<text text-anchor="middle" x="148.849" y="-172.33" font-family="Times,serif" font-size="9.00">theta</text>
</g>
<!-- theta&#45;&gt;control -->
<g id="edge9" class="edge"><title>theta&#45;&gt;control</title>
<path fill="none" stroke="green" stroke-width="0.765694" d="M162.606,-165.52C180.728,-154.643 210.993,-135.236 216.849,-123.681 222.817,-111.908 222.567,-105.879 216.849,-93.9828 207.335,-74.1896 188.388,-58.603 171.32,-47.7698"/>
<polygon fill="green" stroke="green" stroke-width="0.765694" points="172.999,-44.6956 162.626,-42.5409 169.392,-50.6943 172.999,-44.6956"/>
</g>
<!-- 3 -->
<g id="node7" class="node"><title>3</title>
<ellipse fill="white" stroke="black" cx="136.849" cy="-108.832" rx="14.7" ry="14.7"/>
<text text-anchor="middle" x="136.849" y="-106.632" font-family="Times,serif" font-size="9.00">3</text>
</g>
<!-- theta&#45;&gt;3 -->
<g id="edge8" class="edge"><title>theta&#45;&gt;3</title>
<path fill="none" stroke="red" stroke-width="0.342016" d="M147.329,-165.463C145.838,-157.548 143.489,-145.079 141.393,-133.951"/>
<polygon fill="red" stroke="red" stroke-width="0.342016" points="144.788,-133.064 139.497,-123.885 137.909,-134.36 144.788,-133.064"/>
</g>
<!-- dtheta -->
<g id="node4" class="node"><title>dtheta</title>
<polygon fill="lightgray" stroke="black" points="207.849,-117.832 169.849,-117.832 169.849,-99.832 207.849,-99.832 207.849,-117.832"/>
<text text-anchor="middle" x="188.849" y="-106.632" font-family="Times,serif" font-size="9.00">dtheta</text>
</g>
<!-- dtheta&#45;&gt;control -->
<g id="edge4" class="edge"><title>dtheta&#45;&gt;control</title>
<path fill="none" stroke="green" stroke-width="1.58216" d="M183.48,-99.7949C177.506,-90.8522 167.477,-75.8387 158.247,-62.0217"/>
<polygon fill="green" stroke="green" stroke-width="1.58216" points="161.111,-60.0094 152.646,-53.6384 155.291,-63.8979 161.111,-60.0094"/>
</g>
<!-- 1&#45;&gt;control -->
<g id="edge7" class="edge"><title>1&#45;&gt;control</title>
<path fill="none" stroke="red" stroke-width="0.570032" d="M61.3945,-98.2872C72.9581,-87.8208 92.0079,-70.5783 108.073,-56.0376"/>
<polygon fill="red" stroke="red" stroke-width="0.570032" points="110.608,-58.4635 115.674,-49.158 105.911,-53.2737 110.608,-58.4635"/>
</g>
<!-- 5 -->
<g id="node9" class="node"><title>5</title>
<ellipse fill="white" stroke="black" cx="14.8492" cy="-28.9914" rx="14.7" ry="14.7"/>
<text text-anchor="middle" x="14.8492" y="-26.7914" font-family="Times,serif" font-size="9.00">5</text>
</g>
<!-- 1&#45;&gt;5 -->
<g id="edge6" class="edge"><title>1&#45;&gt;5</title>
<path fill="none" stroke="green" stroke-width="0.670448" d="M44.9046,-94.9782C39.5371,-83.3725 31.5229,-66.0438 25.1197,-52.1985"/>
<polygon fill="green" stroke="green" stroke-width="0.670448" points="28.1772,-50.4714 20.8027,-42.8643 21.8237,-53.4098 28.1772,-50.4714"/>
</g>
<!-- 6 -->
<g id="node10" class="node"><title>6</title>
<ellipse fill="white" stroke="black" cx="62.8492" cy="-28.9914" rx="14.7" ry="14.7"/>
<text text-anchor="middle" x="62.8492" y="-26.7914" font-family="Times,serif" font-size="9.00">6</text>
</g>
<!-- 1&#45;&gt;6 -->
<g id="edge2" class="edge"><title>1&#45;&gt;6</title>
<path fill="none" stroke="green" stroke-width="0.107327" d="M52.9946,-93.9157C54.701,-82.8465 57.1288,-67.0981 59.1477,-54.0026"/>
<polygon fill="green" stroke="green" stroke-width="0.107327" points="62.6579,-54.2038 60.7225,-43.7872 55.7396,-53.1372 62.6579,-54.2038"/>
</g>
<!-- 3&#45;&gt;control -->
<g id="edge5" class="edge"><title>3&#45;&gt;control</title>
<path fill="none" stroke="green" stroke-width="0.835102" d="M136.849,-93.9157C136.849,-86.7351 136.849,-77.5853 136.849,-68.4681"/>
<polygon fill="green" stroke="green" stroke-width="0.835102" points="140.349,-68.2949 136.849,-58.2949 133.349,-68.2949 140.349,-68.2949"/>
</g>
<!-- 4 -->
<g id="node8" class="node"><title>4</title>
<ellipse fill="white" stroke="black" cx="197.849" cy="-174.53" rx="14.7" ry="14.7"/>
<text text-anchor="middle" x="197.849" y="-172.33" font-family="Times,serif" font-size="9.00">4</text>
</g>
</g>
</svg>
