<?xml version="1.0" encoding="UTF-8" standalone="no"?>
<!DOCTYPE svg PUBLIC "-//W3C//DTD SVG 1.1//EN"
 "http://www.w3.org/Graphics/SVG/1.1/DTD/svg11.dtd">
<!-- Generated by graphviz version 2.38.0 (20140413.2041)
 -->
<!-- Title: %3 Pages: 1 -->
<svg width="229pt" height="186pt"
 viewBox="0.00 0.00 229.43 185.68" xmlns="http://www.w3.org/2000/svg" xmlns:xlink="http://www.w3.org/1999/xlink">
<g id="graph0" class="graph" transform="scale(1 1) rotate(0) translate(4 181.681)">
<title>%3</title>
<polygon fill="white" stroke="none" points="-4,4 -4,-181.681 225.433,-181.681 225.433,4 -4,4"/>
<!-- x -->
<g id="node1" class="node"><title>x</title>
<polygon fill="lightgray" stroke="black" points="50.3492,-177.681 29.3492,-177.681 29.3492,-159.681 50.3492,-159.681 50.3492,-177.681"/>
<text text-anchor="middle" x="39.8492" y="-166.481" font-family="Times,serif" font-size="9.00">x</text>
</g>
<!-- dx -->
<g id="node2" class="node"><title>dx</title>
<polygon fill="lightgray" stroke="black" points="94.8492,-177.681 68.8492,-177.681 68.8492,-159.681 94.8492,-159.681 94.8492,-177.681"/>
<text text-anchor="middle" x="81.8492" y="-166.481" font-family="Times,serif" font-size="9.00">dx</text>
</g>
<!-- control -->
<g id="node5" class="node"><title>control</title>
<ellipse fill="lightblue" stroke="black" cx="136.849" cy="-28.9914" rx="28.9828" ry="28.9828"/>
<text text-anchor="middle" x="136.849" y="-26.7914" font-family="Times,serif" font-size="9.00">control</text>
</g>
<!-- dx&#45;&gt;control -->
<g id="edge3" class="edge"><title>dx&#45;&gt;control</title>
<path fill="none" stroke="green" stroke-width="0.654964" d="M85.125,-159.48C92.3345,-141.432 109.941,-97.3551 122.61,-65.6381"/>
<polygon fill="green" stroke="green" stroke-width="0.654964" points="125.907,-66.8191 126.367,-56.2342 119.407,-64.2224 125.907,-66.8191"/>
</g>
<!-- 1 -->
<g id="node6" class="node"><title>1</title>
<ellipse fill="white" stroke="black" cx="50.8492" cy="-108.832" rx="14.7" ry="14.7"/>
<text text-anchor="middle" x="50.8492" y="-106.632" font-family="Times,serif" font-size="9.00">1</text>
</g>
<!-- dx&#45;&gt;1 -->
<g id="edge1" class="edge"><title>dx&#45;&gt;1</title>
<path fill="none" stroke="red" stroke-width="0.136648" d="M77.5388,-159.638C73.6053,-152.297 67.6131,-141.115 62.3024,-131.205"/>
<polygon fill="red" stroke="red" stroke-width="0.136648" points="65.3174,-129.421 57.509,-122.26 59.1474,-132.727 65.3174,-129.421"/>
</g>
<!-- theta -->
<g id="node3" class="node"><title>theta</title>
<polygon fill="lightgray" stroke="black" points="165.349,-177.681 132.349,-177.681 132.349,-159.681 165.349,-159.681 165.349,-177.681"/>
<text text-anchor="middle" x="148.849" y="-166.481" font-family="Times,serif" font-size="9.00">theta</text>
</g>
<!-- theta&#45;&gt;control -->
<g id="edge9" class="edge"><title>theta&#45;&gt;control</title>
<path fill="none" stroke="green" stroke-width="0.765694" d="M165.523,-162.216C181.924,-155.844 206.03,-143.568 216.849,-123.681 223.157,-112.087 222.567,-105.879 216.849,-93.9828 207.335,-74.1896 188.388,-58.603 171.32,-47.7698"/>
<polygon fill="green" stroke="green" stroke-width="0.765694" points="172.999,-44.6956 162.626,-42.5409 169.392,-50.6943 172.999,-44.6956"/>
</g>
<!-- 3 -->
<g id="node7" class="node"><title>3</title>
<ellipse fill="white" stroke="black" cx="136.849" cy="-108.832" rx="14.7" ry="14.7"/>
<text text-anchor="middle" x="136.849" y="-106.632" font-family="Times,serif" font-size="9.00">3</text>
</g>
<!-- theta&#45;&gt;3 -->
<g id="edge8" class="edge"><title>theta&#45;&gt;3</title>
<path fill="none" stroke="red" stroke-width="0.342016" d="M147.181,-159.638C145.777,-152.871 143.696,-142.839 141.769,-133.548"/>
<polygon fill="red" stroke="red" stroke-width="0.342016" points="145.161,-132.668 139.703,-123.587 138.307,-134.09 145.161,-132.668"/>
</g>
<!-- dtheta -->
<g id="node4" class="node"><title>dtheta</title>
<polygon fill="lightgray" stroke="black" points="207.849,-117.832 169.849,-117.832 169.849,-99.832 207.849,-99.832 207.849,-117.832"/>
<text text-anchor="middle" x="188.849" y="-106.632" font-family="Times,serif" font-size="9.00">dtheta</text>
</g>
<!-- dtheta&#45;&gt;control -->
<g id="edge4" class="edge"><title>dtheta&#45;&gt;control</title>
<path fill="none" stroke="green" stroke-width="1.58216" d="M183.48,-99.7949C177.506,-90.8522 167.477,-75.8387 158.247,-62.0217"/>
<polygon fill="green" stroke="green" stroke-width="1.58216" points="161.111,-60.0094 152.646,-53.6384 155.291,-63.8979 161.111,-60.0094"/>
</g>
<!-- 1&#45;&gt;control -->
<g id="edge7" class="edge"><title>1&#45;&gt;control</title>
<path fill="none" stroke="red" stroke-width="0.570032" d="M61.3945,-98.2872C72.9581,-87.8208 92.0079,-70.5783 108.073,-56.0376"/>
<polygon fill="red" stroke="red" stroke-width="0.570032" points="110.608,-58.4635 115.674,-49.158 105.911,-53.2737 110.608,-58.4635"/>
</g>
<!-- 6 -->
<g id="node8" class="node"><title>6</title>
<ellipse fill="none" stroke="black" cx="14.8492" cy="-28.9914" rx="14.7" ry="14.7"/>
<text text-anchor="middle" x="14.8492" y="-26.7914" font-family="Times,serif" font-size="9.00">6</text>
</g>
<!-- 1&#45;&gt;6 -->
<g id="edge2" class="edge"><title>1&#45;&gt;6</title>
<path fill="none" stroke="green" stroke-width="0.107327" d="M44.9046,-94.9782C39.5371,-83.3725 31.5229,-66.0438 25.1197,-52.1985"/>
<polygon fill="green" stroke="green" stroke-width="0.107327" points="28.1772,-50.4714 20.8027,-42.8643 21.8237,-53.4098 28.1772,-50.4714"/>
</g>
<!-- 5 -->
<g id="node9" class="node"><title>5</title>
<ellipse fill="none" stroke="black" cx="62.8492" cy="-28.9914" rx="14.7" ry="14.7"/>
<text text-anchor="middle" x="62.8492" y="-26.7914" font-family="Times,serif" font-size="9.00">5</text>
</g>
<!-- 1&#45;&gt;5 -->
<g id="edge6" class="edge"><title>1&#45;&gt;5</title>
<path fill="none" stroke="green" stroke-width="0.670448" d="M52.9946,-93.9157C54.701,-82.8465 57.1288,-67.0981 59.1477,-54.0026"/>
<polygon fill="green" stroke="green" stroke-width="0.670448" points="62.6579,-54.2038 60.7225,-43.7872 55.7396,-53.1372 62.6579,-54.2038"/>
</g>
<!-- 3&#45;&gt;control -->
<g id="edge5" class="edge"><title>3&#45;&gt;control</title>
<path fill="none" stroke="green" stroke-width="0.835102" d="M136.849,-93.9157C136.849,-86.7351 136.849,-77.5853 136.849,-68.4681"/>
<polygon fill="green" stroke="green" stroke-width="0.835102" points="140.349,-68.2949 136.849,-58.2949 133.349,-68.2949 140.349,-68.2949"/>
</g>
</g>
</svg>
